G04 #@! TF.GenerationSoftware,KiCad,Pcbnew,9.0.2*
G04 #@! TF.CreationDate,2025-06-17T21:40:11-05:00*
G04 #@! TF.ProjectId,hackapad_but_kerbal,6861636b-6170-4616-945f-6275745f6b65,rev?*
G04 #@! TF.SameCoordinates,Original*
G04 #@! TF.FileFunction,Copper,L2,Bot*
G04 #@! TF.FilePolarity,Positive*
%FSLAX46Y46*%
G04 Gerber Fmt 4.6, Leading zero omitted, Abs format (unit mm)*
G04 Created by KiCad (PCBNEW 9.0.2) date 2025-06-17 21:40:11*
%MOMM*%
%LPD*%
G01*
G04 APERTURE LIST*
G04 #@! TA.AperFunction,ComponentPad*
%ADD10C,2.200000*%
G04 #@! TD*
G04 #@! TA.AperFunction,ComponentPad*
%ADD11R,2.000000X2.000000*%
G04 #@! TD*
G04 #@! TA.AperFunction,ComponentPad*
%ADD12C,2.000000*%
G04 #@! TD*
G04 #@! TA.AperFunction,ComponentPad*
%ADD13R,3.200000X2.000000*%
G04 #@! TD*
G04 #@! TA.AperFunction,ComponentPad*
%ADD14C,1.524000*%
G04 #@! TD*
G04 #@! TA.AperFunction,ViaPad*
%ADD15C,0.600000*%
G04 #@! TD*
G04 #@! TA.AperFunction,Conductor*
%ADD16C,0.200000*%
G04 #@! TD*
G04 APERTURE END LIST*
D10*
G04 #@! TO.P,SW1,1,1*
G04 #@! TO.N,GND*
X110560000Y-87361250D03*
G04 #@! TO.P,SW1,2,2*
G04 #@! TO.N,Net-(U1-GPIO7{slash}SCL)*
X104210000Y-89901250D03*
G04 #@! TD*
G04 #@! TO.P,SW4,1,1*
G04 #@! TO.N,GND*
X129610000Y-106420000D03*
G04 #@! TO.P,SW4,2,2*
G04 #@! TO.N,Net-(U1-GPIO2{slash}SCK)*
X123260000Y-108960000D03*
G04 #@! TD*
D11*
G04 #@! TO.P,SW7,A,A*
G04 #@! TO.N,Net-(U1-GPIO29{slash}ADC3{slash}A3)*
X139376250Y-70900000D03*
D12*
G04 #@! TO.P,SW7,B,B*
G04 #@! TO.N,Net-(U1-GPIO28{slash}ADC2{slash}A2)*
X139376250Y-75900000D03*
G04 #@! TO.P,SW7,C,C*
G04 #@! TO.N,GND*
X139376250Y-73400000D03*
D13*
G04 #@! TO.P,SW7,MP*
G04 #@! TO.N,N/C*
X146876250Y-67800000D03*
X146876250Y-79000000D03*
D12*
G04 #@! TO.P,SW7,S1,S1*
G04 #@! TO.N,GND*
X153876250Y-75900000D03*
G04 #@! TO.P,SW7,S2,S2*
G04 #@! TO.N,Net-(U1-GPIO27{slash}ADC1{slash}A1)*
X153876250Y-70900000D03*
G04 #@! TD*
D10*
G04 #@! TO.P,SW2,1,1*
G04 #@! TO.N,GND*
X110560000Y-106411250D03*
G04 #@! TO.P,SW2,2,2*
G04 #@! TO.N,Net-(U1-GPIO0{slash}TX)*
X104210000Y-108951250D03*
G04 #@! TD*
G04 #@! TO.P,SW5,1,1*
G04 #@! TO.N,GND*
X148660000Y-87370000D03*
G04 #@! TO.P,SW5,2,2*
G04 #@! TO.N,Net-(U1-GPIO4{slash}MISO)*
X142310000Y-89910000D03*
G04 #@! TD*
G04 #@! TO.P,SW3,1,1*
G04 #@! TO.N,GND*
X129610000Y-87361250D03*
G04 #@! TO.P,SW3,2,2*
G04 #@! TO.N,Net-(U1-GPIO1{slash}RX)*
X123260000Y-89901250D03*
G04 #@! TD*
D14*
G04 #@! TO.P,U1,1,GPIO26/ADC0/A0*
G04 #@! TO.N,Net-(U1-GPIO26{slash}ADC0{slash}A0)*
X118960000Y-64800000D03*
G04 #@! TO.P,U1,2,GPIO27/ADC1/A1*
G04 #@! TO.N,Net-(U1-GPIO27{slash}ADC1{slash}A1)*
X118960000Y-67340000D03*
G04 #@! TO.P,U1,3,GPIO28/ADC2/A2*
G04 #@! TO.N,Net-(U1-GPIO28{slash}ADC2{slash}A2)*
X118960000Y-69880000D03*
G04 #@! TO.P,U1,4,GPIO29/ADC3/A3*
G04 #@! TO.N,Net-(U1-GPIO29{slash}ADC3{slash}A3)*
X118960000Y-72420000D03*
G04 #@! TO.P,U1,5,GPIO6/SDA*
G04 #@! TO.N,Net-(D1-DIN)*
X118960000Y-74960000D03*
G04 #@! TO.P,U1,6,GPIO7/SCL*
G04 #@! TO.N,Net-(U1-GPIO7{slash}SCL)*
X118960000Y-77500000D03*
G04 #@! TO.P,U1,7,GPIO0/TX*
G04 #@! TO.N,Net-(U1-GPIO0{slash}TX)*
X118960000Y-80040000D03*
G04 #@! TO.P,U1,8,GPIO1/RX*
G04 #@! TO.N,Net-(U1-GPIO1{slash}RX)*
X134200000Y-80040000D03*
G04 #@! TO.P,U1,9,GPIO2/SCK*
G04 #@! TO.N,Net-(U1-GPIO2{slash}SCK)*
X134200000Y-77500000D03*
G04 #@! TO.P,U1,10,GPIO4/MISO*
G04 #@! TO.N,Net-(U1-GPIO4{slash}MISO)*
X134200000Y-74960000D03*
G04 #@! TO.P,U1,11,GPIO3/MOSI*
G04 #@! TO.N,Net-(U1-GPIO3{slash}MOSI)*
X134200000Y-72420000D03*
G04 #@! TO.P,U1,12,3V3*
G04 #@! TO.N,unconnected-(U1-3V3-Pad12)*
X134200000Y-69880000D03*
G04 #@! TO.P,U1,13,GND*
G04 #@! TO.N,GND*
X134200000Y-67340000D03*
G04 #@! TO.P,U1,14,VBUS*
G04 #@! TO.N,+5V*
X134200000Y-64800000D03*
G04 #@! TD*
D10*
G04 #@! TO.P,SW6,1,1*
G04 #@! TO.N,GND*
X148660000Y-106420000D03*
G04 #@! TO.P,SW6,2,2*
G04 #@! TO.N,Net-(U1-GPIO3{slash}MOSI)*
X142310000Y-108960000D03*
G04 #@! TD*
G04 #@! TO.P,SW8,1,1*
G04 #@! TO.N,Net-(U1-GPIO26{slash}ADC0{slash}A0)*
X110540000Y-68320000D03*
G04 #@! TO.P,SW8,2,2*
G04 #@! TO.N,GND*
X104190000Y-70860000D03*
G04 #@! TD*
D15*
G04 #@! TO.N,+5V*
X142200000Y-68200000D03*
G04 #@! TD*
D16*
G04 #@! TO.N,+5V*
X142200000Y-68200000D02*
X138800000Y-64800000D01*
X138800000Y-64800000D02*
X134200000Y-64800000D01*
G04 #@! TO.N,Net-(U1-GPIO7{slash}SCL)*
X116611250Y-77500000D02*
X118960000Y-77500000D01*
X104210000Y-89901250D02*
X116611250Y-77500000D01*
G04 #@! TO.N,Net-(U1-GPIO0{slash}TX)*
X118960000Y-94201250D02*
X118960000Y-80040000D01*
X104210000Y-108951250D02*
X118960000Y-94201250D01*
G04 #@! TO.N,Net-(U1-GPIO1{slash}RX)*
X133121250Y-80040000D02*
X134200000Y-80040000D01*
X123260000Y-89901250D02*
X133121250Y-80040000D01*
G04 #@! TO.N,Net-(U1-GPIO2{slash}SCK)*
X135263000Y-78563000D02*
X134200000Y-77500000D01*
X135263000Y-96957000D02*
X135263000Y-78563000D01*
X123260000Y-108960000D02*
X135263000Y-96957000D01*
G04 #@! TO.N,Net-(U1-GPIO4{slash}MISO)*
X133137000Y-71979690D02*
X133137000Y-73897000D01*
X133137000Y-73897000D02*
X134200000Y-74960000D01*
X138075250Y-74791940D02*
X134640310Y-71357000D01*
X133759690Y-71357000D02*
X133137000Y-71979690D01*
X138075250Y-85675250D02*
X138075250Y-74791940D01*
X134640310Y-71357000D02*
X133759690Y-71357000D01*
X142310000Y-89910000D02*
X138075250Y-85675250D01*
G04 #@! TO.N,Net-(U1-GPIO3{slash}MOSI)*
X142310000Y-108960000D02*
X135664000Y-102314000D01*
X135664000Y-73884000D02*
X134200000Y-72420000D01*
X135664000Y-102314000D02*
X135664000Y-73884000D01*
G04 #@! TO.N,Net-(U1-GPIO29{slash}ADC3{slash}A3)*
X118960000Y-72420000D02*
X120424000Y-70956000D01*
X139320250Y-70956000D02*
X139376250Y-70900000D01*
X120424000Y-70956000D02*
X139320250Y-70956000D01*
G04 #@! TO.N,Net-(U1-GPIO27{slash}ADC1{slash}A1)*
X153876250Y-70900000D02*
X141978250Y-70900000D01*
X139481250Y-68403000D02*
X120023000Y-68403000D01*
X120023000Y-68403000D02*
X118960000Y-67340000D01*
X141978250Y-70900000D02*
X139481250Y-68403000D01*
G04 #@! TD*
M02*
