G04 #@! TF.GenerationSoftware,KiCad,Pcbnew,9.0.2*
G04 #@! TF.CreationDate,2025-06-17T21:40:11-05:00*
G04 #@! TF.ProjectId,hackapad_but_kerbal,6861636b-6170-4616-945f-6275745f6b65,rev?*
G04 #@! TF.SameCoordinates,Original*
G04 #@! TF.FileFunction,Soldermask,Bot*
G04 #@! TF.FilePolarity,Negative*
%FSLAX46Y46*%
G04 Gerber Fmt 4.6, Leading zero omitted, Abs format (unit mm)*
G04 Created by KiCad (PCBNEW 9.0.2) date 2025-06-17 21:40:11*
%MOMM*%
%LPD*%
G01*
G04 APERTURE LIST*
%ADD10C,1.700000*%
%ADD11C,4.000000*%
%ADD12C,2.200000*%
%ADD13O,2.200000X1.600000*%
%ADD14C,2.100000*%
%ADD15R,2.000000X2.000000*%
%ADD16C,2.000000*%
%ADD17R,3.200000X2.000000*%
%ADD18C,1.524000*%
G04 APERTURE END LIST*
D10*
G04 #@! TO.C,SW1*
X102940000Y-92441250D03*
D11*
X108020000Y-92441250D03*
D10*
X113100000Y-92441250D03*
D12*
X110560000Y-87361250D03*
X104210000Y-89901250D03*
G04 #@! TD*
D10*
G04 #@! TO.C,SW4*
X121990000Y-111500000D03*
D11*
X127070000Y-111500000D03*
D10*
X132150000Y-111500000D03*
D12*
X129610000Y-106420000D03*
X123260000Y-108960000D03*
G04 #@! TD*
D13*
G04 #@! TO.C,SW7*
X142376250Y-73400000D03*
D14*
X146876250Y-73400000D03*
D15*
X139376250Y-70900000D03*
D16*
X139376250Y-75900000D03*
X139376250Y-73400000D03*
D17*
X146876250Y-67800000D03*
X146876250Y-79000000D03*
D16*
X153876250Y-75900000D03*
X153876250Y-70900000D03*
G04 #@! TD*
D10*
G04 #@! TO.C,SW2*
X102940000Y-111491250D03*
D11*
X108020000Y-111491250D03*
D10*
X113100000Y-111491250D03*
D12*
X110560000Y-106411250D03*
X104210000Y-108951250D03*
G04 #@! TD*
D10*
G04 #@! TO.C,SW5*
X141040000Y-92450000D03*
D11*
X146120000Y-92450000D03*
D10*
X151200000Y-92450000D03*
D12*
X148660000Y-87370000D03*
X142310000Y-89910000D03*
G04 #@! TD*
D10*
G04 #@! TO.C,SW3*
X121990000Y-92441250D03*
D11*
X127070000Y-92441250D03*
D10*
X132150000Y-92441250D03*
D12*
X129610000Y-87361250D03*
X123260000Y-89901250D03*
G04 #@! TD*
D18*
G04 #@! TO.C,U1*
X118960000Y-64800000D03*
X118960000Y-67340000D03*
X118960000Y-69880000D03*
X118960000Y-72420000D03*
X118960000Y-74960000D03*
X118960000Y-77500000D03*
X118960000Y-80040000D03*
X134200000Y-80040000D03*
X134200000Y-77500000D03*
X134200000Y-74960000D03*
X134200000Y-72420000D03*
X134200000Y-69880000D03*
X134200000Y-67340000D03*
X134200000Y-64800000D03*
G04 #@! TD*
D10*
G04 #@! TO.C,SW6*
X141040000Y-111500000D03*
D11*
X146120000Y-111500000D03*
D10*
X151200000Y-111500000D03*
D12*
X148660000Y-106420000D03*
X142310000Y-108960000D03*
G04 #@! TD*
D10*
G04 #@! TO.C,SW8*
X102920000Y-73400000D03*
D11*
X108000000Y-73400000D03*
D10*
X113080000Y-73400000D03*
D12*
X110540000Y-68320000D03*
X104190000Y-70860000D03*
G04 #@! TD*
M02*
