G04 #@! TF.GenerationSoftware,KiCad,Pcbnew,9.0.2*
G04 #@! TF.CreationDate,2025-06-17T21:40:11-05:00*
G04 #@! TF.ProjectId,hackapad_but_kerbal,6861636b-6170-4616-945f-6275745f6b65,rev?*
G04 #@! TF.SameCoordinates,Original*
G04 #@! TF.FileFunction,Legend,Top*
G04 #@! TF.FilePolarity,Positive*
%FSLAX46Y46*%
G04 Gerber Fmt 4.6, Leading zero omitted, Abs format (unit mm)*
G04 Created by KiCad (PCBNEW 9.0.2) date 2025-06-17 21:40:11*
%MOMM*%
%LPD*%
G01*
G04 APERTURE LIST*
G04 Aperture macros list*
%AMRoundRect*
0 Rectangle with rounded corners*
0 $1 Rounding radius*
0 $2 $3 $4 $5 $6 $7 $8 $9 X,Y pos of 4 corners*
0 Add a 4 corners polygon primitive as box body*
4,1,4,$2,$3,$4,$5,$6,$7,$8,$9,$2,$3,0*
0 Add four circle primitives for the rounded corners*
1,1,$1+$1,$2,$3*
1,1,$1+$1,$4,$5*
1,1,$1+$1,$6,$7*
1,1,$1+$1,$8,$9*
0 Add four rect primitives between the rounded corners*
20,1,$1+$1,$2,$3,$4,$5,0*
20,1,$1+$1,$4,$5,$6,$7,0*
20,1,$1+$1,$6,$7,$8,$9,0*
20,1,$1+$1,$8,$9,$2,$3,0*%
G04 Aperture macros list end*
%ADD10C,0.100000*%
%ADD11C,0.150000*%
%ADD12C,0.101600*%
%ADD13C,0.120000*%
%ADD14C,0.127000*%
%ADD15C,0.504000*%
%ADD16C,1.700000*%
%ADD17C,4.000000*%
%ADD18C,2.200000*%
%ADD19O,2.200000X1.600000*%
%ADD20C,2.100000*%
%ADD21R,2.000000X2.000000*%
%ADD22C,2.000000*%
%ADD23R,3.200000X2.000000*%
%ADD24RoundRect,0.152400X1.063600X0.609600X-1.063600X0.609600X-1.063600X-0.609600X1.063600X-0.609600X0*%
%ADD25C,1.524000*%
%ADD26RoundRect,0.152400X-1.063600X-0.609600X1.063600X-0.609600X1.063600X0.609600X-1.063600X0.609600X0*%
%ADD27R,1.600000X0.850000*%
G04 APERTURE END LIST*
D10*
X123608646Y-72972419D02*
X124275312Y-73972419D01*
X124275312Y-72972419D02*
X123608646Y-73972419D01*
X124656265Y-73972419D02*
X124656265Y-72972419D01*
X125084836Y-73686704D02*
X125561026Y-73686704D01*
X124989598Y-73972419D02*
X125322931Y-72972419D01*
X125322931Y-72972419D02*
X125656264Y-73972419D01*
X126180074Y-72972419D02*
X126370550Y-72972419D01*
X126370550Y-72972419D02*
X126465788Y-73020038D01*
X126465788Y-73020038D02*
X126561026Y-73115276D01*
X126561026Y-73115276D02*
X126608645Y-73305752D01*
X126608645Y-73305752D02*
X126608645Y-73639085D01*
X126608645Y-73639085D02*
X126561026Y-73829561D01*
X126561026Y-73829561D02*
X126465788Y-73924800D01*
X126465788Y-73924800D02*
X126370550Y-73972419D01*
X126370550Y-73972419D02*
X126180074Y-73972419D01*
X126180074Y-73972419D02*
X126084836Y-73924800D01*
X126084836Y-73924800D02*
X125989598Y-73829561D01*
X125989598Y-73829561D02*
X125941979Y-73639085D01*
X125941979Y-73639085D02*
X125941979Y-73305752D01*
X125941979Y-73305752D02*
X125989598Y-73115276D01*
X125989598Y-73115276D02*
X126084836Y-73020038D01*
X126084836Y-73020038D02*
X126180074Y-72972419D01*
X127799122Y-73972419D02*
X127799122Y-72972419D01*
X127799122Y-73448609D02*
X128370550Y-73448609D01*
X128370550Y-73972419D02*
X128370550Y-72972419D01*
X128846741Y-73448609D02*
X129180074Y-73448609D01*
X129322931Y-73972419D02*
X128846741Y-73972419D01*
X128846741Y-73972419D02*
X128846741Y-72972419D01*
X128846741Y-72972419D02*
X129322931Y-72972419D01*
X130322931Y-73972419D02*
X129989598Y-73496228D01*
X129751503Y-73972419D02*
X129751503Y-72972419D01*
X129751503Y-72972419D02*
X130132455Y-72972419D01*
X130132455Y-72972419D02*
X130227693Y-73020038D01*
X130227693Y-73020038D02*
X130275312Y-73067657D01*
X130275312Y-73067657D02*
X130322931Y-73162895D01*
X130322931Y-73162895D02*
X130322931Y-73305752D01*
X130322931Y-73305752D02*
X130275312Y-73400990D01*
X130275312Y-73400990D02*
X130227693Y-73448609D01*
X130227693Y-73448609D02*
X130132455Y-73496228D01*
X130132455Y-73496228D02*
X129751503Y-73496228D01*
X130751503Y-73448609D02*
X131084836Y-73448609D01*
X131227693Y-73972419D02*
X130751503Y-73972419D01*
X130751503Y-73972419D02*
X130751503Y-72972419D01*
X130751503Y-72972419D02*
X131227693Y-72972419D01*
X100172419Y-80796115D02*
X99172419Y-80796115D01*
X99172419Y-80796115D02*
X100172419Y-80224687D01*
X100172419Y-80224687D02*
X99172419Y-80224687D01*
X99648609Y-79415163D02*
X99696228Y-79272306D01*
X99696228Y-79272306D02*
X99743847Y-79224687D01*
X99743847Y-79224687D02*
X99839085Y-79177068D01*
X99839085Y-79177068D02*
X99981942Y-79177068D01*
X99981942Y-79177068D02*
X100077180Y-79224687D01*
X100077180Y-79224687D02*
X100124800Y-79272306D01*
X100124800Y-79272306D02*
X100172419Y-79367544D01*
X100172419Y-79367544D02*
X100172419Y-79748496D01*
X100172419Y-79748496D02*
X99172419Y-79748496D01*
X99172419Y-79748496D02*
X99172419Y-79415163D01*
X99172419Y-79415163D02*
X99220038Y-79319925D01*
X99220038Y-79319925D02*
X99267657Y-79272306D01*
X99267657Y-79272306D02*
X99362895Y-79224687D01*
X99362895Y-79224687D02*
X99458133Y-79224687D01*
X99458133Y-79224687D02*
X99553371Y-79272306D01*
X99553371Y-79272306D02*
X99600990Y-79319925D01*
X99600990Y-79319925D02*
X99648609Y-79415163D01*
X99648609Y-79415163D02*
X99648609Y-79748496D01*
X99886704Y-78796115D02*
X99886704Y-78319925D01*
X100172419Y-78891353D02*
X99172419Y-78558020D01*
X99172419Y-78558020D02*
X100172419Y-78224687D01*
X100172419Y-77415163D02*
X100172419Y-77891353D01*
X100172419Y-77891353D02*
X99172419Y-77891353D01*
X99886704Y-77129448D02*
X99886704Y-76653258D01*
X100172419Y-77224686D02*
X99172419Y-76891353D01*
X99172419Y-76891353D02*
X100172419Y-76558020D01*
X99303884Y-63272419D02*
X99303884Y-62272419D01*
X99303884Y-62748609D02*
X99875312Y-62748609D01*
X99875312Y-63272419D02*
X99875312Y-62272419D01*
X100780074Y-63272419D02*
X100780074Y-62748609D01*
X100780074Y-62748609D02*
X100732455Y-62653371D01*
X100732455Y-62653371D02*
X100637217Y-62605752D01*
X100637217Y-62605752D02*
X100446741Y-62605752D01*
X100446741Y-62605752D02*
X100351503Y-62653371D01*
X100780074Y-63224800D02*
X100684836Y-63272419D01*
X100684836Y-63272419D02*
X100446741Y-63272419D01*
X100446741Y-63272419D02*
X100351503Y-63224800D01*
X100351503Y-63224800D02*
X100303884Y-63129561D01*
X100303884Y-63129561D02*
X100303884Y-63034323D01*
X100303884Y-63034323D02*
X100351503Y-62939085D01*
X100351503Y-62939085D02*
X100446741Y-62891466D01*
X100446741Y-62891466D02*
X100684836Y-62891466D01*
X100684836Y-62891466D02*
X100780074Y-62843847D01*
X101684836Y-63224800D02*
X101589598Y-63272419D01*
X101589598Y-63272419D02*
X101399122Y-63272419D01*
X101399122Y-63272419D02*
X101303884Y-63224800D01*
X101303884Y-63224800D02*
X101256265Y-63177180D01*
X101256265Y-63177180D02*
X101208646Y-63081942D01*
X101208646Y-63081942D02*
X101208646Y-62796228D01*
X101208646Y-62796228D02*
X101256265Y-62700990D01*
X101256265Y-62700990D02*
X101303884Y-62653371D01*
X101303884Y-62653371D02*
X101399122Y-62605752D01*
X101399122Y-62605752D02*
X101589598Y-62605752D01*
X101589598Y-62605752D02*
X101684836Y-62653371D01*
X102113408Y-63272419D02*
X102113408Y-62272419D01*
X102208646Y-62891466D02*
X102494360Y-63272419D01*
X102494360Y-62605752D02*
X102113408Y-62986704D01*
X102922932Y-62605752D02*
X102922932Y-63605752D01*
X102922932Y-62653371D02*
X103018170Y-62605752D01*
X103018170Y-62605752D02*
X103208646Y-62605752D01*
X103208646Y-62605752D02*
X103303884Y-62653371D01*
X103303884Y-62653371D02*
X103351503Y-62700990D01*
X103351503Y-62700990D02*
X103399122Y-62796228D01*
X103399122Y-62796228D02*
X103399122Y-63081942D01*
X103399122Y-63081942D02*
X103351503Y-63177180D01*
X103351503Y-63177180D02*
X103303884Y-63224800D01*
X103303884Y-63224800D02*
X103208646Y-63272419D01*
X103208646Y-63272419D02*
X103018170Y-63272419D01*
X103018170Y-63272419D02*
X102922932Y-63224800D01*
X104256265Y-63272419D02*
X104256265Y-62748609D01*
X104256265Y-62748609D02*
X104208646Y-62653371D01*
X104208646Y-62653371D02*
X104113408Y-62605752D01*
X104113408Y-62605752D02*
X103922932Y-62605752D01*
X103922932Y-62605752D02*
X103827694Y-62653371D01*
X104256265Y-63224800D02*
X104161027Y-63272419D01*
X104161027Y-63272419D02*
X103922932Y-63272419D01*
X103922932Y-63272419D02*
X103827694Y-63224800D01*
X103827694Y-63224800D02*
X103780075Y-63129561D01*
X103780075Y-63129561D02*
X103780075Y-63034323D01*
X103780075Y-63034323D02*
X103827694Y-62939085D01*
X103827694Y-62939085D02*
X103922932Y-62891466D01*
X103922932Y-62891466D02*
X104161027Y-62891466D01*
X104161027Y-62891466D02*
X104256265Y-62843847D01*
X105161027Y-63272419D02*
X105161027Y-62272419D01*
X105161027Y-63224800D02*
X105065789Y-63272419D01*
X105065789Y-63272419D02*
X104875313Y-63272419D01*
X104875313Y-63272419D02*
X104780075Y-63224800D01*
X104780075Y-63224800D02*
X104732456Y-63177180D01*
X104732456Y-63177180D02*
X104684837Y-63081942D01*
X104684837Y-63081942D02*
X104684837Y-62796228D01*
X104684837Y-62796228D02*
X104732456Y-62700990D01*
X104732456Y-62700990D02*
X104780075Y-62653371D01*
X104780075Y-62653371D02*
X104875313Y-62605752D01*
X104875313Y-62605752D02*
X105065789Y-62605752D01*
X105065789Y-62605752D02*
X105161027Y-62653371D01*
X105637218Y-63177180D02*
X105684837Y-63224800D01*
X105684837Y-63224800D02*
X105637218Y-63272419D01*
X105637218Y-63272419D02*
X105589599Y-63224800D01*
X105589599Y-63224800D02*
X105637218Y-63177180D01*
X105637218Y-63177180D02*
X105637218Y-63272419D01*
X106113408Y-63177180D02*
X106161027Y-63224800D01*
X106161027Y-63224800D02*
X106113408Y-63272419D01*
X106113408Y-63272419D02*
X106065789Y-63224800D01*
X106065789Y-63224800D02*
X106113408Y-63177180D01*
X106113408Y-63177180D02*
X106113408Y-63272419D01*
X106589598Y-63177180D02*
X106637217Y-63224800D01*
X106637217Y-63224800D02*
X106589598Y-63272419D01*
X106589598Y-63272419D02*
X106541979Y-63224800D01*
X106541979Y-63224800D02*
X106589598Y-63177180D01*
X106589598Y-63177180D02*
X106589598Y-63272419D01*
X108161026Y-62748609D02*
X108303883Y-62796228D01*
X108303883Y-62796228D02*
X108351502Y-62843847D01*
X108351502Y-62843847D02*
X108399121Y-62939085D01*
X108399121Y-62939085D02*
X108399121Y-63081942D01*
X108399121Y-63081942D02*
X108351502Y-63177180D01*
X108351502Y-63177180D02*
X108303883Y-63224800D01*
X108303883Y-63224800D02*
X108208645Y-63272419D01*
X108208645Y-63272419D02*
X107827693Y-63272419D01*
X107827693Y-63272419D02*
X107827693Y-62272419D01*
X107827693Y-62272419D02*
X108161026Y-62272419D01*
X108161026Y-62272419D02*
X108256264Y-62320038D01*
X108256264Y-62320038D02*
X108303883Y-62367657D01*
X108303883Y-62367657D02*
X108351502Y-62462895D01*
X108351502Y-62462895D02*
X108351502Y-62558133D01*
X108351502Y-62558133D02*
X108303883Y-62653371D01*
X108303883Y-62653371D02*
X108256264Y-62700990D01*
X108256264Y-62700990D02*
X108161026Y-62748609D01*
X108161026Y-62748609D02*
X107827693Y-62748609D01*
X108827693Y-62272419D02*
X108827693Y-63081942D01*
X108827693Y-63081942D02*
X108875312Y-63177180D01*
X108875312Y-63177180D02*
X108922931Y-63224800D01*
X108922931Y-63224800D02*
X109018169Y-63272419D01*
X109018169Y-63272419D02*
X109208645Y-63272419D01*
X109208645Y-63272419D02*
X109303883Y-63224800D01*
X109303883Y-63224800D02*
X109351502Y-63177180D01*
X109351502Y-63177180D02*
X109399121Y-63081942D01*
X109399121Y-63081942D02*
X109399121Y-62272419D01*
X109732455Y-62272419D02*
X110303883Y-62272419D01*
X110018169Y-63272419D02*
X110018169Y-62272419D01*
X111399122Y-63272419D02*
X111399122Y-62272419D01*
X111970550Y-63272419D02*
X111541979Y-62700990D01*
X111970550Y-62272419D02*
X111399122Y-62843847D01*
X112399122Y-62748609D02*
X112732455Y-62748609D01*
X112875312Y-63272419D02*
X112399122Y-63272419D01*
X112399122Y-63272419D02*
X112399122Y-62272419D01*
X112399122Y-62272419D02*
X112875312Y-62272419D01*
X113875312Y-63272419D02*
X113541979Y-62796228D01*
X113303884Y-63272419D02*
X113303884Y-62272419D01*
X113303884Y-62272419D02*
X113684836Y-62272419D01*
X113684836Y-62272419D02*
X113780074Y-62320038D01*
X113780074Y-62320038D02*
X113827693Y-62367657D01*
X113827693Y-62367657D02*
X113875312Y-62462895D01*
X113875312Y-62462895D02*
X113875312Y-62605752D01*
X113875312Y-62605752D02*
X113827693Y-62700990D01*
X113827693Y-62700990D02*
X113780074Y-62748609D01*
X113780074Y-62748609D02*
X113684836Y-62796228D01*
X113684836Y-62796228D02*
X113303884Y-62796228D01*
X114637217Y-62748609D02*
X114780074Y-62796228D01*
X114780074Y-62796228D02*
X114827693Y-62843847D01*
X114827693Y-62843847D02*
X114875312Y-62939085D01*
X114875312Y-62939085D02*
X114875312Y-63081942D01*
X114875312Y-63081942D02*
X114827693Y-63177180D01*
X114827693Y-63177180D02*
X114780074Y-63224800D01*
X114780074Y-63224800D02*
X114684836Y-63272419D01*
X114684836Y-63272419D02*
X114303884Y-63272419D01*
X114303884Y-63272419D02*
X114303884Y-62272419D01*
X114303884Y-62272419D02*
X114637217Y-62272419D01*
X114637217Y-62272419D02*
X114732455Y-62320038D01*
X114732455Y-62320038D02*
X114780074Y-62367657D01*
X114780074Y-62367657D02*
X114827693Y-62462895D01*
X114827693Y-62462895D02*
X114827693Y-62558133D01*
X114827693Y-62558133D02*
X114780074Y-62653371D01*
X114780074Y-62653371D02*
X114732455Y-62700990D01*
X114732455Y-62700990D02*
X114637217Y-62748609D01*
X114637217Y-62748609D02*
X114303884Y-62748609D01*
X115256265Y-62986704D02*
X115732455Y-62986704D01*
X115161027Y-63272419D02*
X115494360Y-62272419D01*
X115494360Y-62272419D02*
X115827693Y-63272419D01*
X116637217Y-63272419D02*
X116161027Y-63272419D01*
X116161027Y-63272419D02*
X116161027Y-62272419D01*
D11*
X106686667Y-84974450D02*
X106829524Y-85022069D01*
X106829524Y-85022069D02*
X107067619Y-85022069D01*
X107067619Y-85022069D02*
X107162857Y-84974450D01*
X107162857Y-84974450D02*
X107210476Y-84926830D01*
X107210476Y-84926830D02*
X107258095Y-84831592D01*
X107258095Y-84831592D02*
X107258095Y-84736354D01*
X107258095Y-84736354D02*
X107210476Y-84641116D01*
X107210476Y-84641116D02*
X107162857Y-84593497D01*
X107162857Y-84593497D02*
X107067619Y-84545878D01*
X107067619Y-84545878D02*
X106877143Y-84498259D01*
X106877143Y-84498259D02*
X106781905Y-84450640D01*
X106781905Y-84450640D02*
X106734286Y-84403021D01*
X106734286Y-84403021D02*
X106686667Y-84307783D01*
X106686667Y-84307783D02*
X106686667Y-84212545D01*
X106686667Y-84212545D02*
X106734286Y-84117307D01*
X106734286Y-84117307D02*
X106781905Y-84069688D01*
X106781905Y-84069688D02*
X106877143Y-84022069D01*
X106877143Y-84022069D02*
X107115238Y-84022069D01*
X107115238Y-84022069D02*
X107258095Y-84069688D01*
X107591429Y-84022069D02*
X107829524Y-85022069D01*
X107829524Y-85022069D02*
X108020000Y-84307783D01*
X108020000Y-84307783D02*
X108210476Y-85022069D01*
X108210476Y-85022069D02*
X108448572Y-84022069D01*
X109353333Y-85022069D02*
X108781905Y-85022069D01*
X109067619Y-85022069D02*
X109067619Y-84022069D01*
X109067619Y-84022069D02*
X108972381Y-84164926D01*
X108972381Y-84164926D02*
X108877143Y-84260164D01*
X108877143Y-84260164D02*
X108781905Y-84307783D01*
X125736667Y-104033200D02*
X125879524Y-104080819D01*
X125879524Y-104080819D02*
X126117619Y-104080819D01*
X126117619Y-104080819D02*
X126212857Y-104033200D01*
X126212857Y-104033200D02*
X126260476Y-103985580D01*
X126260476Y-103985580D02*
X126308095Y-103890342D01*
X126308095Y-103890342D02*
X126308095Y-103795104D01*
X126308095Y-103795104D02*
X126260476Y-103699866D01*
X126260476Y-103699866D02*
X126212857Y-103652247D01*
X126212857Y-103652247D02*
X126117619Y-103604628D01*
X126117619Y-103604628D02*
X125927143Y-103557009D01*
X125927143Y-103557009D02*
X125831905Y-103509390D01*
X125831905Y-103509390D02*
X125784286Y-103461771D01*
X125784286Y-103461771D02*
X125736667Y-103366533D01*
X125736667Y-103366533D02*
X125736667Y-103271295D01*
X125736667Y-103271295D02*
X125784286Y-103176057D01*
X125784286Y-103176057D02*
X125831905Y-103128438D01*
X125831905Y-103128438D02*
X125927143Y-103080819D01*
X125927143Y-103080819D02*
X126165238Y-103080819D01*
X126165238Y-103080819D02*
X126308095Y-103128438D01*
X126641429Y-103080819D02*
X126879524Y-104080819D01*
X126879524Y-104080819D02*
X127070000Y-103366533D01*
X127070000Y-103366533D02*
X127260476Y-104080819D01*
X127260476Y-104080819D02*
X127498572Y-103080819D01*
X128308095Y-103414152D02*
X128308095Y-104080819D01*
X128070000Y-103033200D02*
X127831905Y-103747485D01*
X127831905Y-103747485D02*
X128450952Y-103747485D01*
X140842917Y-66607200D02*
X140985774Y-66654819D01*
X140985774Y-66654819D02*
X141223869Y-66654819D01*
X141223869Y-66654819D02*
X141319107Y-66607200D01*
X141319107Y-66607200D02*
X141366726Y-66559580D01*
X141366726Y-66559580D02*
X141414345Y-66464342D01*
X141414345Y-66464342D02*
X141414345Y-66369104D01*
X141414345Y-66369104D02*
X141366726Y-66273866D01*
X141366726Y-66273866D02*
X141319107Y-66226247D01*
X141319107Y-66226247D02*
X141223869Y-66178628D01*
X141223869Y-66178628D02*
X141033393Y-66131009D01*
X141033393Y-66131009D02*
X140938155Y-66083390D01*
X140938155Y-66083390D02*
X140890536Y-66035771D01*
X140890536Y-66035771D02*
X140842917Y-65940533D01*
X140842917Y-65940533D02*
X140842917Y-65845295D01*
X140842917Y-65845295D02*
X140890536Y-65750057D01*
X140890536Y-65750057D02*
X140938155Y-65702438D01*
X140938155Y-65702438D02*
X141033393Y-65654819D01*
X141033393Y-65654819D02*
X141271488Y-65654819D01*
X141271488Y-65654819D02*
X141414345Y-65702438D01*
X141747679Y-65654819D02*
X141985774Y-66654819D01*
X141985774Y-66654819D02*
X142176250Y-65940533D01*
X142176250Y-65940533D02*
X142366726Y-66654819D01*
X142366726Y-66654819D02*
X142604822Y-65654819D01*
X142890536Y-65654819D02*
X143557202Y-65654819D01*
X143557202Y-65654819D02*
X143128631Y-66654819D01*
X106686667Y-104024450D02*
X106829524Y-104072069D01*
X106829524Y-104072069D02*
X107067619Y-104072069D01*
X107067619Y-104072069D02*
X107162857Y-104024450D01*
X107162857Y-104024450D02*
X107210476Y-103976830D01*
X107210476Y-103976830D02*
X107258095Y-103881592D01*
X107258095Y-103881592D02*
X107258095Y-103786354D01*
X107258095Y-103786354D02*
X107210476Y-103691116D01*
X107210476Y-103691116D02*
X107162857Y-103643497D01*
X107162857Y-103643497D02*
X107067619Y-103595878D01*
X107067619Y-103595878D02*
X106877143Y-103548259D01*
X106877143Y-103548259D02*
X106781905Y-103500640D01*
X106781905Y-103500640D02*
X106734286Y-103453021D01*
X106734286Y-103453021D02*
X106686667Y-103357783D01*
X106686667Y-103357783D02*
X106686667Y-103262545D01*
X106686667Y-103262545D02*
X106734286Y-103167307D01*
X106734286Y-103167307D02*
X106781905Y-103119688D01*
X106781905Y-103119688D02*
X106877143Y-103072069D01*
X106877143Y-103072069D02*
X107115238Y-103072069D01*
X107115238Y-103072069D02*
X107258095Y-103119688D01*
X107591429Y-103072069D02*
X107829524Y-104072069D01*
X107829524Y-104072069D02*
X108020000Y-103357783D01*
X108020000Y-103357783D02*
X108210476Y-104072069D01*
X108210476Y-104072069D02*
X108448572Y-103072069D01*
X108781905Y-103167307D02*
X108829524Y-103119688D01*
X108829524Y-103119688D02*
X108924762Y-103072069D01*
X108924762Y-103072069D02*
X109162857Y-103072069D01*
X109162857Y-103072069D02*
X109258095Y-103119688D01*
X109258095Y-103119688D02*
X109305714Y-103167307D01*
X109305714Y-103167307D02*
X109353333Y-103262545D01*
X109353333Y-103262545D02*
X109353333Y-103357783D01*
X109353333Y-103357783D02*
X109305714Y-103500640D01*
X109305714Y-103500640D02*
X108734286Y-104072069D01*
X108734286Y-104072069D02*
X109353333Y-104072069D01*
X144786667Y-84983200D02*
X144929524Y-85030819D01*
X144929524Y-85030819D02*
X145167619Y-85030819D01*
X145167619Y-85030819D02*
X145262857Y-84983200D01*
X145262857Y-84983200D02*
X145310476Y-84935580D01*
X145310476Y-84935580D02*
X145358095Y-84840342D01*
X145358095Y-84840342D02*
X145358095Y-84745104D01*
X145358095Y-84745104D02*
X145310476Y-84649866D01*
X145310476Y-84649866D02*
X145262857Y-84602247D01*
X145262857Y-84602247D02*
X145167619Y-84554628D01*
X145167619Y-84554628D02*
X144977143Y-84507009D01*
X144977143Y-84507009D02*
X144881905Y-84459390D01*
X144881905Y-84459390D02*
X144834286Y-84411771D01*
X144834286Y-84411771D02*
X144786667Y-84316533D01*
X144786667Y-84316533D02*
X144786667Y-84221295D01*
X144786667Y-84221295D02*
X144834286Y-84126057D01*
X144834286Y-84126057D02*
X144881905Y-84078438D01*
X144881905Y-84078438D02*
X144977143Y-84030819D01*
X144977143Y-84030819D02*
X145215238Y-84030819D01*
X145215238Y-84030819D02*
X145358095Y-84078438D01*
X145691429Y-84030819D02*
X145929524Y-85030819D01*
X145929524Y-85030819D02*
X146120000Y-84316533D01*
X146120000Y-84316533D02*
X146310476Y-85030819D01*
X146310476Y-85030819D02*
X146548572Y-84030819D01*
X147405714Y-84030819D02*
X146929524Y-84030819D01*
X146929524Y-84030819D02*
X146881905Y-84507009D01*
X146881905Y-84507009D02*
X146929524Y-84459390D01*
X146929524Y-84459390D02*
X147024762Y-84411771D01*
X147024762Y-84411771D02*
X147262857Y-84411771D01*
X147262857Y-84411771D02*
X147358095Y-84459390D01*
X147358095Y-84459390D02*
X147405714Y-84507009D01*
X147405714Y-84507009D02*
X147453333Y-84602247D01*
X147453333Y-84602247D02*
X147453333Y-84840342D01*
X147453333Y-84840342D02*
X147405714Y-84935580D01*
X147405714Y-84935580D02*
X147358095Y-84983200D01*
X147358095Y-84983200D02*
X147262857Y-85030819D01*
X147262857Y-85030819D02*
X147024762Y-85030819D01*
X147024762Y-85030819D02*
X146929524Y-84983200D01*
X146929524Y-84983200D02*
X146881905Y-84935580D01*
X125736667Y-84974450D02*
X125879524Y-85022069D01*
X125879524Y-85022069D02*
X126117619Y-85022069D01*
X126117619Y-85022069D02*
X126212857Y-84974450D01*
X126212857Y-84974450D02*
X126260476Y-84926830D01*
X126260476Y-84926830D02*
X126308095Y-84831592D01*
X126308095Y-84831592D02*
X126308095Y-84736354D01*
X126308095Y-84736354D02*
X126260476Y-84641116D01*
X126260476Y-84641116D02*
X126212857Y-84593497D01*
X126212857Y-84593497D02*
X126117619Y-84545878D01*
X126117619Y-84545878D02*
X125927143Y-84498259D01*
X125927143Y-84498259D02*
X125831905Y-84450640D01*
X125831905Y-84450640D02*
X125784286Y-84403021D01*
X125784286Y-84403021D02*
X125736667Y-84307783D01*
X125736667Y-84307783D02*
X125736667Y-84212545D01*
X125736667Y-84212545D02*
X125784286Y-84117307D01*
X125784286Y-84117307D02*
X125831905Y-84069688D01*
X125831905Y-84069688D02*
X125927143Y-84022069D01*
X125927143Y-84022069D02*
X126165238Y-84022069D01*
X126165238Y-84022069D02*
X126308095Y-84069688D01*
X126641429Y-84022069D02*
X126879524Y-85022069D01*
X126879524Y-85022069D02*
X127070000Y-84307783D01*
X127070000Y-84307783D02*
X127260476Y-85022069D01*
X127260476Y-85022069D02*
X127498572Y-84022069D01*
X127784286Y-84022069D02*
X128403333Y-84022069D01*
X128403333Y-84022069D02*
X128070000Y-84403021D01*
X128070000Y-84403021D02*
X128212857Y-84403021D01*
X128212857Y-84403021D02*
X128308095Y-84450640D01*
X128308095Y-84450640D02*
X128355714Y-84498259D01*
X128355714Y-84498259D02*
X128403333Y-84593497D01*
X128403333Y-84593497D02*
X128403333Y-84831592D01*
X128403333Y-84831592D02*
X128355714Y-84926830D01*
X128355714Y-84926830D02*
X128308095Y-84974450D01*
X128308095Y-84974450D02*
X128212857Y-85022069D01*
X128212857Y-85022069D02*
X127927143Y-85022069D01*
X127927143Y-85022069D02*
X127831905Y-84974450D01*
X127831905Y-84974450D02*
X127784286Y-84926830D01*
D12*
X126226190Y-69854729D02*
X126226190Y-70368776D01*
X126226190Y-70368776D02*
X126256428Y-70429252D01*
X126256428Y-70429252D02*
X126286666Y-70459491D01*
X126286666Y-70459491D02*
X126347142Y-70489729D01*
X126347142Y-70489729D02*
X126468095Y-70489729D01*
X126468095Y-70489729D02*
X126528571Y-70459491D01*
X126528571Y-70459491D02*
X126558809Y-70429252D01*
X126558809Y-70429252D02*
X126589047Y-70368776D01*
X126589047Y-70368776D02*
X126589047Y-69854729D01*
X127224047Y-70489729D02*
X126861190Y-70489729D01*
X127042618Y-70489729D02*
X127042618Y-69854729D01*
X127042618Y-69854729D02*
X126982142Y-69945443D01*
X126982142Y-69945443D02*
X126921666Y-70005919D01*
X126921666Y-70005919D02*
X126861190Y-70036157D01*
D11*
X146011905Y-61479819D02*
X146011905Y-60479819D01*
X146011905Y-60479819D02*
X146250000Y-60479819D01*
X146250000Y-60479819D02*
X146392857Y-60527438D01*
X146392857Y-60527438D02*
X146488095Y-60622676D01*
X146488095Y-60622676D02*
X146535714Y-60717914D01*
X146535714Y-60717914D02*
X146583333Y-60908390D01*
X146583333Y-60908390D02*
X146583333Y-61051247D01*
X146583333Y-61051247D02*
X146535714Y-61241723D01*
X146535714Y-61241723D02*
X146488095Y-61336961D01*
X146488095Y-61336961D02*
X146392857Y-61432200D01*
X146392857Y-61432200D02*
X146250000Y-61479819D01*
X146250000Y-61479819D02*
X146011905Y-61479819D01*
X147535714Y-61479819D02*
X146964286Y-61479819D01*
X147250000Y-61479819D02*
X147250000Y-60479819D01*
X147250000Y-60479819D02*
X147154762Y-60622676D01*
X147154762Y-60622676D02*
X147059524Y-60717914D01*
X147059524Y-60717914D02*
X146964286Y-60765533D01*
X143778571Y-63262295D02*
X143321428Y-63262295D01*
X143550000Y-63262295D02*
X143550000Y-62462295D01*
X143550000Y-62462295D02*
X143473809Y-62576580D01*
X143473809Y-62576580D02*
X143397619Y-62652771D01*
X143397619Y-62652771D02*
X143321428Y-62690866D01*
X144786667Y-104033200D02*
X144929524Y-104080819D01*
X144929524Y-104080819D02*
X145167619Y-104080819D01*
X145167619Y-104080819D02*
X145262857Y-104033200D01*
X145262857Y-104033200D02*
X145310476Y-103985580D01*
X145310476Y-103985580D02*
X145358095Y-103890342D01*
X145358095Y-103890342D02*
X145358095Y-103795104D01*
X145358095Y-103795104D02*
X145310476Y-103699866D01*
X145310476Y-103699866D02*
X145262857Y-103652247D01*
X145262857Y-103652247D02*
X145167619Y-103604628D01*
X145167619Y-103604628D02*
X144977143Y-103557009D01*
X144977143Y-103557009D02*
X144881905Y-103509390D01*
X144881905Y-103509390D02*
X144834286Y-103461771D01*
X144834286Y-103461771D02*
X144786667Y-103366533D01*
X144786667Y-103366533D02*
X144786667Y-103271295D01*
X144786667Y-103271295D02*
X144834286Y-103176057D01*
X144834286Y-103176057D02*
X144881905Y-103128438D01*
X144881905Y-103128438D02*
X144977143Y-103080819D01*
X144977143Y-103080819D02*
X145215238Y-103080819D01*
X145215238Y-103080819D02*
X145358095Y-103128438D01*
X145691429Y-103080819D02*
X145929524Y-104080819D01*
X145929524Y-104080819D02*
X146120000Y-103366533D01*
X146120000Y-103366533D02*
X146310476Y-104080819D01*
X146310476Y-104080819D02*
X146548572Y-103080819D01*
X147358095Y-103080819D02*
X147167619Y-103080819D01*
X147167619Y-103080819D02*
X147072381Y-103128438D01*
X147072381Y-103128438D02*
X147024762Y-103176057D01*
X147024762Y-103176057D02*
X146929524Y-103318914D01*
X146929524Y-103318914D02*
X146881905Y-103509390D01*
X146881905Y-103509390D02*
X146881905Y-103890342D01*
X146881905Y-103890342D02*
X146929524Y-103985580D01*
X146929524Y-103985580D02*
X146977143Y-104033200D01*
X146977143Y-104033200D02*
X147072381Y-104080819D01*
X147072381Y-104080819D02*
X147262857Y-104080819D01*
X147262857Y-104080819D02*
X147358095Y-104033200D01*
X147358095Y-104033200D02*
X147405714Y-103985580D01*
X147405714Y-103985580D02*
X147453333Y-103890342D01*
X147453333Y-103890342D02*
X147453333Y-103652247D01*
X147453333Y-103652247D02*
X147405714Y-103557009D01*
X147405714Y-103557009D02*
X147358095Y-103509390D01*
X147358095Y-103509390D02*
X147262857Y-103461771D01*
X147262857Y-103461771D02*
X147072381Y-103461771D01*
X147072381Y-103461771D02*
X146977143Y-103509390D01*
X146977143Y-103509390D02*
X146929524Y-103557009D01*
X146929524Y-103557009D02*
X146881905Y-103652247D01*
X106666667Y-65933200D02*
X106809524Y-65980819D01*
X106809524Y-65980819D02*
X107047619Y-65980819D01*
X107047619Y-65980819D02*
X107142857Y-65933200D01*
X107142857Y-65933200D02*
X107190476Y-65885580D01*
X107190476Y-65885580D02*
X107238095Y-65790342D01*
X107238095Y-65790342D02*
X107238095Y-65695104D01*
X107238095Y-65695104D02*
X107190476Y-65599866D01*
X107190476Y-65599866D02*
X107142857Y-65552247D01*
X107142857Y-65552247D02*
X107047619Y-65504628D01*
X107047619Y-65504628D02*
X106857143Y-65457009D01*
X106857143Y-65457009D02*
X106761905Y-65409390D01*
X106761905Y-65409390D02*
X106714286Y-65361771D01*
X106714286Y-65361771D02*
X106666667Y-65266533D01*
X106666667Y-65266533D02*
X106666667Y-65171295D01*
X106666667Y-65171295D02*
X106714286Y-65076057D01*
X106714286Y-65076057D02*
X106761905Y-65028438D01*
X106761905Y-65028438D02*
X106857143Y-64980819D01*
X106857143Y-64980819D02*
X107095238Y-64980819D01*
X107095238Y-64980819D02*
X107238095Y-65028438D01*
X107571429Y-64980819D02*
X107809524Y-65980819D01*
X107809524Y-65980819D02*
X108000000Y-65266533D01*
X108000000Y-65266533D02*
X108190476Y-65980819D01*
X108190476Y-65980819D02*
X108428572Y-64980819D01*
X108952381Y-65409390D02*
X108857143Y-65361771D01*
X108857143Y-65361771D02*
X108809524Y-65314152D01*
X108809524Y-65314152D02*
X108761905Y-65218914D01*
X108761905Y-65218914D02*
X108761905Y-65171295D01*
X108761905Y-65171295D02*
X108809524Y-65076057D01*
X108809524Y-65076057D02*
X108857143Y-65028438D01*
X108857143Y-65028438D02*
X108952381Y-64980819D01*
X108952381Y-64980819D02*
X109142857Y-64980819D01*
X109142857Y-64980819D02*
X109238095Y-65028438D01*
X109238095Y-65028438D02*
X109285714Y-65076057D01*
X109285714Y-65076057D02*
X109333333Y-65171295D01*
X109333333Y-65171295D02*
X109333333Y-65218914D01*
X109333333Y-65218914D02*
X109285714Y-65314152D01*
X109285714Y-65314152D02*
X109238095Y-65361771D01*
X109238095Y-65361771D02*
X109142857Y-65409390D01*
X109142857Y-65409390D02*
X108952381Y-65409390D01*
X108952381Y-65409390D02*
X108857143Y-65457009D01*
X108857143Y-65457009D02*
X108809524Y-65504628D01*
X108809524Y-65504628D02*
X108761905Y-65599866D01*
X108761905Y-65599866D02*
X108761905Y-65790342D01*
X108761905Y-65790342D02*
X108809524Y-65885580D01*
X108809524Y-65885580D02*
X108857143Y-65933200D01*
X108857143Y-65933200D02*
X108952381Y-65980819D01*
X108952381Y-65980819D02*
X109142857Y-65980819D01*
X109142857Y-65980819D02*
X109238095Y-65933200D01*
X109238095Y-65933200D02*
X109285714Y-65885580D01*
X109285714Y-65885580D02*
X109333333Y-65790342D01*
X109333333Y-65790342D02*
X109333333Y-65599866D01*
X109333333Y-65599866D02*
X109285714Y-65504628D01*
X109285714Y-65504628D02*
X109238095Y-65457009D01*
X109238095Y-65457009D02*
X109142857Y-65409390D01*
D13*
G04 #@! TO.C,SW1*
X101035000Y-85456250D02*
X115005000Y-85456250D01*
X101035000Y-99426250D02*
X101035000Y-85456250D01*
X115005000Y-85456250D02*
X115005000Y-99426250D01*
X115005000Y-99426250D02*
X101035000Y-99426250D01*
G04 #@! TO.C,SW4*
X120085000Y-104515000D02*
X134055000Y-104515000D01*
X120085000Y-118485000D02*
X120085000Y-104515000D01*
X134055000Y-104515000D02*
X134055000Y-118485000D01*
X134055000Y-118485000D02*
X120085000Y-118485000D01*
G04 #@! TO.C,SW7*
X139076250Y-69300000D02*
X139676250Y-69300000D01*
X139376250Y-69600000D02*
X139076250Y-69300000D01*
X139676250Y-69300000D02*
X139376250Y-69600000D01*
X140776250Y-67500000D02*
X140776250Y-79300000D01*
X144876250Y-67500000D02*
X140776250Y-67500000D01*
X144876250Y-79300000D02*
X140776250Y-79300000D01*
X148876250Y-67500000D02*
X152976250Y-67500000D01*
X152976250Y-67500000D02*
X152976250Y-69900000D01*
X152976250Y-72100000D02*
X152976250Y-74700000D01*
X152976250Y-76900000D02*
X152976250Y-79300000D01*
X152976250Y-79300000D02*
X148876250Y-79300000D01*
X149876250Y-73400000D02*
G75*
G02*
X143876250Y-73400000I-3000000J0D01*
G01*
X143876250Y-73400000D02*
G75*
G02*
X149876250Y-73400000I3000000J0D01*
G01*
G04 #@! TO.C,SW2*
X101035000Y-104506250D02*
X115005000Y-104506250D01*
X101035000Y-118476250D02*
X101035000Y-104506250D01*
X115005000Y-104506250D02*
X115005000Y-118476250D01*
X115005000Y-118476250D02*
X101035000Y-118476250D01*
G04 #@! TO.C,SW5*
X139135000Y-85465000D02*
X153105000Y-85465000D01*
X139135000Y-99435000D02*
X139135000Y-85465000D01*
X153105000Y-85465000D02*
X153105000Y-99435000D01*
X153105000Y-99435000D02*
X139135000Y-99435000D01*
G04 #@! TO.C,SW3*
X120085000Y-85456250D02*
X134055000Y-85456250D01*
X120085000Y-99426250D02*
X120085000Y-85456250D01*
X134055000Y-85456250D02*
X134055000Y-99426250D01*
X134055000Y-99426250D02*
X120085000Y-99426250D01*
D14*
G04 #@! TO.C,U1*
X117690000Y-80929000D02*
X117690000Y-63784000D01*
X119595000Y-82834000D02*
X133565000Y-82834000D01*
X122085000Y-61879000D02*
X122088728Y-60968728D01*
X122588728Y-60469000D02*
X130584000Y-60469000D01*
X131084000Y-60969000D02*
X131084000Y-61879000D01*
D10*
X133565000Y-61879000D02*
X119595000Y-61879000D01*
D14*
X133565000Y-61879000D02*
X119595000Y-61879000D01*
X135470000Y-80929000D02*
X135470000Y-63784000D01*
X117690000Y-63784000D02*
G75*
G02*
X119595000Y-61879000I1905001J-1D01*
G01*
X119595000Y-82834000D02*
G75*
G02*
X117690000Y-80929000I1J1905001D01*
G01*
X122088728Y-60968728D02*
G75*
G02*
X122588728Y-60469001I500018J-291D01*
G01*
X130584000Y-60469000D02*
G75*
G02*
X131084000Y-60969000I0J-500000D01*
G01*
X133565000Y-61879000D02*
G75*
G02*
X135470000Y-63784000I0J-1905000D01*
G01*
X135470000Y-80929000D02*
G75*
G02*
X133565000Y-82834000I-1905000J0D01*
G01*
D15*
X117882000Y-62120000D02*
G75*
G02*
X117378000Y-62120000I-252000J0D01*
G01*
X117378000Y-62120000D02*
G75*
G02*
X117882000Y-62120000I252000J0D01*
G01*
X119025000Y-63000000D02*
G75*
G02*
X118521000Y-63000000I-252000J0D01*
G01*
X118521000Y-63000000D02*
G75*
G02*
X119025000Y-63000000I252000J0D01*
G01*
D13*
G04 #@! TO.C,D1*
X143950000Y-61775000D02*
X143950000Y-65775000D01*
X143950000Y-61775000D02*
X149550000Y-61775000D01*
X143950000Y-65775000D02*
X148950000Y-65775000D01*
X149550000Y-65175000D02*
X148950000Y-65775000D01*
X149550000Y-65175000D02*
X149550000Y-61775000D01*
G04 #@! TO.C,SW6*
X139135000Y-104515000D02*
X153105000Y-104515000D01*
X139135000Y-118485000D02*
X139135000Y-104515000D01*
X153105000Y-104515000D02*
X153105000Y-118485000D01*
X153105000Y-118485000D02*
X139135000Y-118485000D01*
G04 #@! TO.C,SW8*
X101015000Y-66415000D02*
X114985000Y-66415000D01*
X101015000Y-80385000D02*
X101015000Y-66415000D01*
X114985000Y-66415000D02*
X114985000Y-80385000D01*
X114985000Y-80385000D02*
X101015000Y-80385000D01*
G04 #@! TD*
%LPC*%
D16*
G04 #@! TO.C,SW1*
X102940000Y-92441250D03*
D17*
X108020000Y-92441250D03*
D16*
X113100000Y-92441250D03*
D18*
X110560000Y-87361250D03*
X104210000Y-89901250D03*
G04 #@! TD*
D16*
G04 #@! TO.C,SW4*
X121990000Y-111500000D03*
D17*
X127070000Y-111500000D03*
D16*
X132150000Y-111500000D03*
D18*
X129610000Y-106420000D03*
X123260000Y-108960000D03*
G04 #@! TD*
D19*
G04 #@! TO.C,SW7*
X142376250Y-73400000D03*
D20*
X146876250Y-73400000D03*
D21*
X139376250Y-70900000D03*
D22*
X139376250Y-75900000D03*
X139376250Y-73400000D03*
D23*
X146876250Y-67800000D03*
X146876250Y-79000000D03*
D22*
X153876250Y-75900000D03*
X153876250Y-70900000D03*
G04 #@! TD*
D16*
G04 #@! TO.C,SW2*
X102940000Y-111491250D03*
D17*
X108020000Y-111491250D03*
D16*
X113100000Y-111491250D03*
D18*
X110560000Y-106411250D03*
X104210000Y-108951250D03*
G04 #@! TD*
D16*
G04 #@! TO.C,SW5*
X141040000Y-92450000D03*
D17*
X146120000Y-92450000D03*
D16*
X151200000Y-92450000D03*
D18*
X148660000Y-87370000D03*
X142310000Y-89910000D03*
G04 #@! TD*
D16*
G04 #@! TO.C,SW3*
X121990000Y-92441250D03*
D17*
X127070000Y-92441250D03*
D16*
X132150000Y-92441250D03*
D18*
X129610000Y-87361250D03*
X123260000Y-89901250D03*
G04 #@! TD*
D24*
G04 #@! TO.C,U1*
X118125000Y-64800000D03*
D25*
X118960000Y-64800000D03*
D24*
X118125000Y-67340000D03*
D25*
X118960000Y-67340000D03*
D24*
X118125000Y-69880000D03*
D25*
X118960000Y-69880000D03*
D24*
X118125000Y-72420000D03*
D25*
X118960000Y-72420000D03*
D24*
X118125000Y-74960000D03*
D25*
X118960000Y-74960000D03*
D24*
X118125000Y-77500000D03*
D25*
X118960000Y-77500000D03*
D24*
X118125000Y-80040000D03*
D25*
X118960000Y-80040000D03*
X134200000Y-80040000D03*
D26*
X135035000Y-80040000D03*
D25*
X134200000Y-77500000D03*
D26*
X135035000Y-77500000D03*
D25*
X134200000Y-74960000D03*
D26*
X135035000Y-74960000D03*
D25*
X134200000Y-72420000D03*
D26*
X135035000Y-72420000D03*
D25*
X134200000Y-69880000D03*
D26*
X135035000Y-69880000D03*
D25*
X134200000Y-67340000D03*
D26*
X135035000Y-67340000D03*
D25*
X134200000Y-64800000D03*
D26*
X135035000Y-64800000D03*
G04 #@! TD*
D27*
G04 #@! TO.C,D1*
X145000000Y-62900000D03*
X145000000Y-64650000D03*
X148500000Y-64650000D03*
X148500000Y-62900000D03*
G04 #@! TD*
D16*
G04 #@! TO.C,SW6*
X141040000Y-111500000D03*
D17*
X146120000Y-111500000D03*
D16*
X151200000Y-111500000D03*
D18*
X148660000Y-106420000D03*
X142310000Y-108960000D03*
G04 #@! TD*
D16*
G04 #@! TO.C,SW8*
X102920000Y-73400000D03*
D17*
X108000000Y-73400000D03*
D16*
X113080000Y-73400000D03*
D18*
X110540000Y-68320000D03*
X104190000Y-70860000D03*
G04 #@! TD*
%LPD*%
M02*
