%TF.GenerationSoftware,KiCad,Pcbnew,9.0.2*%
%TF.CreationDate,2025-06-17T21:40:11-05:00*%
%TF.ProjectId,hackapad_but_kerbal,6861636b-6170-4616-945f-6275745f6b65,rev?*%
%TF.SameCoordinates,Original*%
%TF.FileFunction,Drillmap*%
%TF.FilePolarity,Positive*%
%FSLAX45Y45*%
G04 Gerber Fmt 4.5, Leading zero omitted, Abs format (unit mm)*
G04 Created by KiCad (PCBNEW 9.0.2) date 2025-06-17 21:40:11*
%MOMM*%
%LPD*%
G01*
G04 APERTURE LIST*
%ADD10C,0.050000*%
%ADD11C,0.200000*%
%ADD12C,0.100000*%
%ADD13C,0.150000*%
G04 APERTURE END LIST*
D10*
X9840000Y-6170000D02*
X15570000Y-6170000D01*
X15570000Y-12110000D01*
X9840000Y-12110000D01*
X9840000Y-6170000D01*
D11*
D12*
X14205000Y-6805000D02*
X14235000Y-6835000D01*
X14235000Y-6805000D02*
X14205000Y-6835000D01*
X11940450Y-6480000D02*
G75*
G02*
X11851550Y-6480000I-44450J0D01*
G01*
X11851550Y-6480000D02*
G75*
G02*
X11940450Y-6480000I44450J0D01*
G01*
X11940450Y-6734000D02*
G75*
G02*
X11851550Y-6734000I-44450J0D01*
G01*
X11851550Y-6734000D02*
G75*
G02*
X11940450Y-6734000I44450J0D01*
G01*
X11940450Y-6988000D02*
G75*
G02*
X11851550Y-6988000I-44450J0D01*
G01*
X11851550Y-6988000D02*
G75*
G02*
X11940450Y-6988000I44450J0D01*
G01*
X11940450Y-7242000D02*
G75*
G02*
X11851550Y-7242000I-44450J0D01*
G01*
X11851550Y-7242000D02*
G75*
G02*
X11940450Y-7242000I44450J0D01*
G01*
X11940450Y-7496000D02*
G75*
G02*
X11851550Y-7496000I-44450J0D01*
G01*
X11851550Y-7496000D02*
G75*
G02*
X11940450Y-7496000I44450J0D01*
G01*
X11940450Y-7750000D02*
G75*
G02*
X11851550Y-7750000I-44450J0D01*
G01*
X11851550Y-7750000D02*
G75*
G02*
X11940450Y-7750000I44450J0D01*
G01*
X11940450Y-8004000D02*
G75*
G02*
X11851550Y-8004000I-44450J0D01*
G01*
X11851550Y-8004000D02*
G75*
G02*
X11940450Y-8004000I44450J0D01*
G01*
X13464450Y-6480000D02*
G75*
G02*
X13375550Y-6480000I-44450J0D01*
G01*
X13375550Y-6480000D02*
G75*
G02*
X13464450Y-6480000I44450J0D01*
G01*
X13464450Y-6734000D02*
G75*
G02*
X13375550Y-6734000I-44450J0D01*
G01*
X13375550Y-6734000D02*
G75*
G02*
X13464450Y-6734000I44450J0D01*
G01*
X13464450Y-6988000D02*
G75*
G02*
X13375550Y-6988000I-44450J0D01*
G01*
X13375550Y-6988000D02*
G75*
G02*
X13464450Y-6988000I44450J0D01*
G01*
X13464450Y-7242000D02*
G75*
G02*
X13375550Y-7242000I-44450J0D01*
G01*
X13375550Y-7242000D02*
G75*
G02*
X13464450Y-7242000I44450J0D01*
G01*
X13464450Y-7496000D02*
G75*
G02*
X13375550Y-7496000I-44450J0D01*
G01*
X13375550Y-7496000D02*
G75*
G02*
X13464450Y-7496000I44450J0D01*
G01*
X13464450Y-7750000D02*
G75*
G02*
X13375550Y-7750000I-44450J0D01*
G01*
X13375550Y-7750000D02*
G75*
G02*
X13464450Y-7750000I44450J0D01*
G01*
X13464450Y-8004000D02*
G75*
G02*
X13375550Y-8004000I-44450J0D01*
G01*
X13375550Y-8004000D02*
G75*
G02*
X13464450Y-8004000I44450J0D01*
G01*
X13937625Y-7040000D02*
X13937625Y-7140000D01*
X13887625Y-7090000D02*
X13987625Y-7090000D01*
X13937625Y-7290000D02*
X13937625Y-7390000D01*
X13887625Y-7340000D02*
X13987625Y-7340000D01*
X13937625Y-7540000D02*
X13937625Y-7640000D01*
X13887625Y-7590000D02*
X13987625Y-7590000D01*
X15387625Y-7040000D02*
X15387625Y-7140000D01*
X15337625Y-7090000D02*
X15437625Y-7090000D01*
X15387625Y-7540000D02*
X15387625Y-7640000D01*
X15337625Y-7590000D02*
X15437625Y-7590000D01*
D13*
X10472034Y-7139033D02*
X10472034Y-7032966D01*
X10365967Y-7032966D01*
X10365967Y-7139033D01*
X10472034Y-7139033D01*
X10474034Y-9043159D02*
X10474034Y-8937092D01*
X10367967Y-8937092D01*
X10367967Y-9043159D01*
X10474034Y-9043159D01*
X10474034Y-10948159D02*
X10474034Y-10842092D01*
X10367967Y-10842092D01*
X10367967Y-10948159D01*
X10474034Y-10948159D01*
X11107034Y-6885033D02*
X11107034Y-6778966D01*
X11000967Y-6778966D01*
X11000967Y-6885033D01*
X11107034Y-6885033D01*
X11109034Y-8789159D02*
X11109034Y-8683092D01*
X11002967Y-8683092D01*
X11002967Y-8789159D01*
X11109034Y-8789159D01*
X11109034Y-10694159D02*
X11109034Y-10588092D01*
X11002967Y-10588092D01*
X11002967Y-10694159D01*
X11109034Y-10694159D01*
X12379033Y-9043159D02*
X12379033Y-8937092D01*
X12272966Y-8937092D01*
X12272966Y-9043159D01*
X12379033Y-9043159D01*
X12379033Y-10949034D02*
X12379033Y-10842967D01*
X12272966Y-10842967D01*
X12272966Y-10949034D01*
X12379033Y-10949034D01*
X13014033Y-8789159D02*
X13014033Y-8683092D01*
X12907966Y-8683092D01*
X12907966Y-8789159D01*
X13014033Y-8789159D01*
X13014033Y-10695034D02*
X13014033Y-10588967D01*
X12907966Y-10588967D01*
X12907966Y-10695034D01*
X13014033Y-10695034D01*
X14284033Y-9044034D02*
X14284033Y-8937967D01*
X14177966Y-8937967D01*
X14177966Y-9044034D01*
X14284033Y-9044034D01*
X14284033Y-10949034D02*
X14284033Y-10842967D01*
X14177966Y-10842967D01*
X14177966Y-10949034D01*
X14284033Y-10949034D01*
X14740658Y-6833033D02*
X14740658Y-6726966D01*
X14634591Y-6726966D01*
X14634591Y-6833033D01*
X14740658Y-6833033D01*
D12*
X14622625Y-6855000D02*
X14752625Y-6855000D01*
X14752625Y-6705000D02*
G75*
G02*
X14752625Y-6855000I0J-75000D01*
G01*
X14752625Y-6705000D02*
X14622625Y-6705000D01*
X14622625Y-6705000D02*
G75*
G03*
X14622625Y-6855000I0J-75000D01*
G01*
D13*
X14740658Y-7953033D02*
X14740658Y-7846966D01*
X14634591Y-7846966D01*
X14634591Y-7953033D01*
X14740658Y-7953033D01*
D12*
X14622625Y-7975000D02*
X14752625Y-7975000D01*
X14752625Y-7825000D02*
G75*
G02*
X14752625Y-7975000I0J-75000D01*
G01*
X14752625Y-7825000D02*
X14622625Y-7825000D01*
X14622625Y-7825000D02*
G75*
G03*
X14622625Y-7975000I0J-75000D01*
G01*
D13*
X14919033Y-8790034D02*
X14919033Y-8683967D01*
X14812966Y-8683967D01*
X14812966Y-8790034D01*
X14919033Y-8790034D01*
X14919033Y-10695034D02*
X14919033Y-10588967D01*
X14812966Y-10588967D01*
X14812966Y-10695034D01*
X14919033Y-10695034D01*
D11*
X10098277Y-12423984D02*
X10098277Y-12223984D01*
X10098277Y-12223984D02*
X10145896Y-12223984D01*
X10145896Y-12223984D02*
X10174467Y-12233508D01*
X10174467Y-12233508D02*
X10193515Y-12252555D01*
X10193515Y-12252555D02*
X10203039Y-12271603D01*
X10203039Y-12271603D02*
X10212563Y-12309698D01*
X10212563Y-12309698D02*
X10212563Y-12338269D01*
X10212563Y-12338269D02*
X10203039Y-12376365D01*
X10203039Y-12376365D02*
X10193515Y-12395412D01*
X10193515Y-12395412D02*
X10174467Y-12414460D01*
X10174467Y-12414460D02*
X10145896Y-12423984D01*
X10145896Y-12423984D02*
X10098277Y-12423984D01*
X10298277Y-12423984D02*
X10298277Y-12290650D01*
X10298277Y-12328746D02*
X10307801Y-12309698D01*
X10307801Y-12309698D02*
X10317324Y-12300174D01*
X10317324Y-12300174D02*
X10336372Y-12290650D01*
X10336372Y-12290650D02*
X10355420Y-12290650D01*
X10422086Y-12423984D02*
X10422086Y-12290650D01*
X10422086Y-12223984D02*
X10412563Y-12233508D01*
X10412563Y-12233508D02*
X10422086Y-12243031D01*
X10422086Y-12243031D02*
X10431610Y-12233508D01*
X10431610Y-12233508D02*
X10422086Y-12223984D01*
X10422086Y-12223984D02*
X10422086Y-12243031D01*
X10545896Y-12423984D02*
X10526848Y-12414460D01*
X10526848Y-12414460D02*
X10517324Y-12395412D01*
X10517324Y-12395412D02*
X10517324Y-12223984D01*
X10650658Y-12423984D02*
X10631610Y-12414460D01*
X10631610Y-12414460D02*
X10622086Y-12395412D01*
X10622086Y-12395412D02*
X10622086Y-12223984D01*
X10879229Y-12423984D02*
X10879229Y-12223984D01*
X10879229Y-12223984D02*
X10945896Y-12366841D01*
X10945896Y-12366841D02*
X11012563Y-12223984D01*
X11012563Y-12223984D02*
X11012563Y-12423984D01*
X11193515Y-12423984D02*
X11193515Y-12319222D01*
X11193515Y-12319222D02*
X11183991Y-12300174D01*
X11183991Y-12300174D02*
X11164944Y-12290650D01*
X11164944Y-12290650D02*
X11126848Y-12290650D01*
X11126848Y-12290650D02*
X11107801Y-12300174D01*
X11193515Y-12414460D02*
X11174467Y-12423984D01*
X11174467Y-12423984D02*
X11126848Y-12423984D01*
X11126848Y-12423984D02*
X11107801Y-12414460D01*
X11107801Y-12414460D02*
X11098277Y-12395412D01*
X11098277Y-12395412D02*
X11098277Y-12376365D01*
X11098277Y-12376365D02*
X11107801Y-12357317D01*
X11107801Y-12357317D02*
X11126848Y-12347793D01*
X11126848Y-12347793D02*
X11174467Y-12347793D01*
X11174467Y-12347793D02*
X11193515Y-12338269D01*
X11288753Y-12290650D02*
X11288753Y-12490650D01*
X11288753Y-12300174D02*
X11307801Y-12290650D01*
X11307801Y-12290650D02*
X11345896Y-12290650D01*
X11345896Y-12290650D02*
X11364943Y-12300174D01*
X11364943Y-12300174D02*
X11374467Y-12309698D01*
X11374467Y-12309698D02*
X11383991Y-12328746D01*
X11383991Y-12328746D02*
X11383991Y-12385888D01*
X11383991Y-12385888D02*
X11374467Y-12404936D01*
X11374467Y-12404936D02*
X11364943Y-12414460D01*
X11364943Y-12414460D02*
X11345896Y-12423984D01*
X11345896Y-12423984D02*
X11307801Y-12423984D01*
X11307801Y-12423984D02*
X11288753Y-12414460D01*
X11469705Y-12404936D02*
X11479229Y-12414460D01*
X11479229Y-12414460D02*
X11469705Y-12423984D01*
X11469705Y-12423984D02*
X11460182Y-12414460D01*
X11460182Y-12414460D02*
X11469705Y-12404936D01*
X11469705Y-12404936D02*
X11469705Y-12423984D01*
X11469705Y-12300174D02*
X11479229Y-12309698D01*
X11479229Y-12309698D02*
X11469705Y-12319222D01*
X11469705Y-12319222D02*
X11460182Y-12309698D01*
X11460182Y-12309698D02*
X11469705Y-12300174D01*
X11469705Y-12300174D02*
X11469705Y-12319222D01*
D12*
X9807500Y-12737500D02*
X9837500Y-12767500D01*
X9837500Y-12737500D02*
X9807500Y-12767500D01*
D11*
X10136372Y-12643984D02*
X10155420Y-12643984D01*
X10155420Y-12643984D02*
X10174467Y-12653508D01*
X10174467Y-12653508D02*
X10183991Y-12663031D01*
X10183991Y-12663031D02*
X10193515Y-12682079D01*
X10193515Y-12682079D02*
X10203039Y-12720174D01*
X10203039Y-12720174D02*
X10203039Y-12767793D01*
X10203039Y-12767793D02*
X10193515Y-12805888D01*
X10193515Y-12805888D02*
X10183991Y-12824936D01*
X10183991Y-12824936D02*
X10174467Y-12834460D01*
X10174467Y-12834460D02*
X10155420Y-12843984D01*
X10155420Y-12843984D02*
X10136372Y-12843984D01*
X10136372Y-12843984D02*
X10117324Y-12834460D01*
X10117324Y-12834460D02*
X10107801Y-12824936D01*
X10107801Y-12824936D02*
X10098277Y-12805888D01*
X10098277Y-12805888D02*
X10088753Y-12767793D01*
X10088753Y-12767793D02*
X10088753Y-12720174D01*
X10088753Y-12720174D02*
X10098277Y-12682079D01*
X10098277Y-12682079D02*
X10107801Y-12663031D01*
X10107801Y-12663031D02*
X10117324Y-12653508D01*
X10117324Y-12653508D02*
X10136372Y-12643984D01*
X10288753Y-12824936D02*
X10298277Y-12834460D01*
X10298277Y-12834460D02*
X10288753Y-12843984D01*
X10288753Y-12843984D02*
X10279229Y-12834460D01*
X10279229Y-12834460D02*
X10288753Y-12824936D01*
X10288753Y-12824936D02*
X10288753Y-12843984D01*
X10364944Y-12643984D02*
X10488753Y-12643984D01*
X10488753Y-12643984D02*
X10422086Y-12720174D01*
X10422086Y-12720174D02*
X10450658Y-12720174D01*
X10450658Y-12720174D02*
X10469705Y-12729698D01*
X10469705Y-12729698D02*
X10479229Y-12739222D01*
X10479229Y-12739222D02*
X10488753Y-12758269D01*
X10488753Y-12758269D02*
X10488753Y-12805888D01*
X10488753Y-12805888D02*
X10479229Y-12824936D01*
X10479229Y-12824936D02*
X10469705Y-12834460D01*
X10469705Y-12834460D02*
X10450658Y-12843984D01*
X10450658Y-12843984D02*
X10393515Y-12843984D01*
X10393515Y-12843984D02*
X10374467Y-12834460D01*
X10374467Y-12834460D02*
X10364944Y-12824936D01*
X10612563Y-12643984D02*
X10631610Y-12643984D01*
X10631610Y-12643984D02*
X10650658Y-12653508D01*
X10650658Y-12653508D02*
X10660182Y-12663031D01*
X10660182Y-12663031D02*
X10669705Y-12682079D01*
X10669705Y-12682079D02*
X10679229Y-12720174D01*
X10679229Y-12720174D02*
X10679229Y-12767793D01*
X10679229Y-12767793D02*
X10669705Y-12805888D01*
X10669705Y-12805888D02*
X10660182Y-12824936D01*
X10660182Y-12824936D02*
X10650658Y-12834460D01*
X10650658Y-12834460D02*
X10631610Y-12843984D01*
X10631610Y-12843984D02*
X10612563Y-12843984D01*
X10612563Y-12843984D02*
X10593515Y-12834460D01*
X10593515Y-12834460D02*
X10583991Y-12824936D01*
X10583991Y-12824936D02*
X10574467Y-12805888D01*
X10574467Y-12805888D02*
X10564944Y-12767793D01*
X10564944Y-12767793D02*
X10564944Y-12720174D01*
X10564944Y-12720174D02*
X10574467Y-12682079D01*
X10574467Y-12682079D02*
X10583991Y-12663031D01*
X10583991Y-12663031D02*
X10593515Y-12653508D01*
X10593515Y-12653508D02*
X10612563Y-12643984D01*
X10803039Y-12643984D02*
X10822086Y-12643984D01*
X10822086Y-12643984D02*
X10841134Y-12653508D01*
X10841134Y-12653508D02*
X10850658Y-12663031D01*
X10850658Y-12663031D02*
X10860182Y-12682079D01*
X10860182Y-12682079D02*
X10869705Y-12720174D01*
X10869705Y-12720174D02*
X10869705Y-12767793D01*
X10869705Y-12767793D02*
X10860182Y-12805888D01*
X10860182Y-12805888D02*
X10850658Y-12824936D01*
X10850658Y-12824936D02*
X10841134Y-12834460D01*
X10841134Y-12834460D02*
X10822086Y-12843984D01*
X10822086Y-12843984D02*
X10803039Y-12843984D01*
X10803039Y-12843984D02*
X10783991Y-12834460D01*
X10783991Y-12834460D02*
X10774467Y-12824936D01*
X10774467Y-12824936D02*
X10764944Y-12805888D01*
X10764944Y-12805888D02*
X10755420Y-12767793D01*
X10755420Y-12767793D02*
X10755420Y-12720174D01*
X10755420Y-12720174D02*
X10764944Y-12682079D01*
X10764944Y-12682079D02*
X10774467Y-12663031D01*
X10774467Y-12663031D02*
X10783991Y-12653508D01*
X10783991Y-12653508D02*
X10803039Y-12643984D01*
X10955420Y-12843984D02*
X10955420Y-12710650D01*
X10955420Y-12729698D02*
X10964944Y-12720174D01*
X10964944Y-12720174D02*
X10983991Y-12710650D01*
X10983991Y-12710650D02*
X11012563Y-12710650D01*
X11012563Y-12710650D02*
X11031610Y-12720174D01*
X11031610Y-12720174D02*
X11041134Y-12739222D01*
X11041134Y-12739222D02*
X11041134Y-12843984D01*
X11041134Y-12739222D02*
X11050658Y-12720174D01*
X11050658Y-12720174D02*
X11069705Y-12710650D01*
X11069705Y-12710650D02*
X11098277Y-12710650D01*
X11098277Y-12710650D02*
X11117325Y-12720174D01*
X11117325Y-12720174D02*
X11126848Y-12739222D01*
X11126848Y-12739222D02*
X11126848Y-12843984D01*
X11222086Y-12843984D02*
X11222086Y-12710650D01*
X11222086Y-12729698D02*
X11231610Y-12720174D01*
X11231610Y-12720174D02*
X11250658Y-12710650D01*
X11250658Y-12710650D02*
X11279229Y-12710650D01*
X11279229Y-12710650D02*
X11298277Y-12720174D01*
X11298277Y-12720174D02*
X11307801Y-12739222D01*
X11307801Y-12739222D02*
X11307801Y-12843984D01*
X11307801Y-12739222D02*
X11317324Y-12720174D01*
X11317324Y-12720174D02*
X11336372Y-12710650D01*
X11336372Y-12710650D02*
X11364943Y-12710650D01*
X11364943Y-12710650D02*
X11383991Y-12720174D01*
X11383991Y-12720174D02*
X11393515Y-12739222D01*
X11393515Y-12739222D02*
X11393515Y-12843984D01*
X11783991Y-12634460D02*
X11612563Y-12891603D01*
X12041134Y-12643984D02*
X12060182Y-12643984D01*
X12060182Y-12643984D02*
X12079229Y-12653508D01*
X12079229Y-12653508D02*
X12088753Y-12663031D01*
X12088753Y-12663031D02*
X12098277Y-12682079D01*
X12098277Y-12682079D02*
X12107801Y-12720174D01*
X12107801Y-12720174D02*
X12107801Y-12767793D01*
X12107801Y-12767793D02*
X12098277Y-12805888D01*
X12098277Y-12805888D02*
X12088753Y-12824936D01*
X12088753Y-12824936D02*
X12079229Y-12834460D01*
X12079229Y-12834460D02*
X12060182Y-12843984D01*
X12060182Y-12843984D02*
X12041134Y-12843984D01*
X12041134Y-12843984D02*
X12022086Y-12834460D01*
X12022086Y-12834460D02*
X12012563Y-12824936D01*
X12012563Y-12824936D02*
X12003039Y-12805888D01*
X12003039Y-12805888D02*
X11993515Y-12767793D01*
X11993515Y-12767793D02*
X11993515Y-12720174D01*
X11993515Y-12720174D02*
X12003039Y-12682079D01*
X12003039Y-12682079D02*
X12012563Y-12663031D01*
X12012563Y-12663031D02*
X12022086Y-12653508D01*
X12022086Y-12653508D02*
X12041134Y-12643984D01*
X12193515Y-12824936D02*
X12203039Y-12834460D01*
X12203039Y-12834460D02*
X12193515Y-12843984D01*
X12193515Y-12843984D02*
X12183991Y-12834460D01*
X12183991Y-12834460D02*
X12193515Y-12824936D01*
X12193515Y-12824936D02*
X12193515Y-12843984D01*
X12326848Y-12643984D02*
X12345896Y-12643984D01*
X12345896Y-12643984D02*
X12364944Y-12653508D01*
X12364944Y-12653508D02*
X12374467Y-12663031D01*
X12374467Y-12663031D02*
X12383991Y-12682079D01*
X12383991Y-12682079D02*
X12393515Y-12720174D01*
X12393515Y-12720174D02*
X12393515Y-12767793D01*
X12393515Y-12767793D02*
X12383991Y-12805888D01*
X12383991Y-12805888D02*
X12374467Y-12824936D01*
X12374467Y-12824936D02*
X12364944Y-12834460D01*
X12364944Y-12834460D02*
X12345896Y-12843984D01*
X12345896Y-12843984D02*
X12326848Y-12843984D01*
X12326848Y-12843984D02*
X12307801Y-12834460D01*
X12307801Y-12834460D02*
X12298277Y-12824936D01*
X12298277Y-12824936D02*
X12288753Y-12805888D01*
X12288753Y-12805888D02*
X12279229Y-12767793D01*
X12279229Y-12767793D02*
X12279229Y-12720174D01*
X12279229Y-12720174D02*
X12288753Y-12682079D01*
X12288753Y-12682079D02*
X12298277Y-12663031D01*
X12298277Y-12663031D02*
X12307801Y-12653508D01*
X12307801Y-12653508D02*
X12326848Y-12643984D01*
X12583991Y-12843984D02*
X12469706Y-12843984D01*
X12526848Y-12843984D02*
X12526848Y-12643984D01*
X12526848Y-12643984D02*
X12507801Y-12672555D01*
X12507801Y-12672555D02*
X12488753Y-12691603D01*
X12488753Y-12691603D02*
X12469706Y-12701127D01*
X12774467Y-12843984D02*
X12660182Y-12843984D01*
X12717325Y-12843984D02*
X12717325Y-12643984D01*
X12717325Y-12643984D02*
X12698277Y-12672555D01*
X12698277Y-12672555D02*
X12679229Y-12691603D01*
X12679229Y-12691603D02*
X12660182Y-12701127D01*
X12888753Y-12729698D02*
X12869706Y-12720174D01*
X12869706Y-12720174D02*
X12860182Y-12710650D01*
X12860182Y-12710650D02*
X12850658Y-12691603D01*
X12850658Y-12691603D02*
X12850658Y-12682079D01*
X12850658Y-12682079D02*
X12860182Y-12663031D01*
X12860182Y-12663031D02*
X12869706Y-12653508D01*
X12869706Y-12653508D02*
X12888753Y-12643984D01*
X12888753Y-12643984D02*
X12926848Y-12643984D01*
X12926848Y-12643984D02*
X12945896Y-12653508D01*
X12945896Y-12653508D02*
X12955420Y-12663031D01*
X12955420Y-12663031D02*
X12964944Y-12682079D01*
X12964944Y-12682079D02*
X12964944Y-12691603D01*
X12964944Y-12691603D02*
X12955420Y-12710650D01*
X12955420Y-12710650D02*
X12945896Y-12720174D01*
X12945896Y-12720174D02*
X12926848Y-12729698D01*
X12926848Y-12729698D02*
X12888753Y-12729698D01*
X12888753Y-12729698D02*
X12869706Y-12739222D01*
X12869706Y-12739222D02*
X12860182Y-12748746D01*
X12860182Y-12748746D02*
X12850658Y-12767793D01*
X12850658Y-12767793D02*
X12850658Y-12805888D01*
X12850658Y-12805888D02*
X12860182Y-12824936D01*
X12860182Y-12824936D02*
X12869706Y-12834460D01*
X12869706Y-12834460D02*
X12888753Y-12843984D01*
X12888753Y-12843984D02*
X12926848Y-12843984D01*
X12926848Y-12843984D02*
X12945896Y-12834460D01*
X12945896Y-12834460D02*
X12955420Y-12824936D01*
X12955420Y-12824936D02*
X12964944Y-12805888D01*
X12964944Y-12805888D02*
X12964944Y-12767793D01*
X12964944Y-12767793D02*
X12955420Y-12748746D01*
X12955420Y-12748746D02*
X12945896Y-12739222D01*
X12945896Y-12739222D02*
X12926848Y-12729698D01*
X13041134Y-12643984D02*
X13041134Y-12682079D01*
X13117325Y-12643984D02*
X13117325Y-12682079D01*
X13412563Y-12920174D02*
X13403039Y-12910650D01*
X13403039Y-12910650D02*
X13383991Y-12882079D01*
X13383991Y-12882079D02*
X13374468Y-12863031D01*
X13374468Y-12863031D02*
X13364944Y-12834460D01*
X13364944Y-12834460D02*
X13355420Y-12786841D01*
X13355420Y-12786841D02*
X13355420Y-12748746D01*
X13355420Y-12748746D02*
X13364944Y-12701127D01*
X13364944Y-12701127D02*
X13374468Y-12672555D01*
X13374468Y-12672555D02*
X13383991Y-12653508D01*
X13383991Y-12653508D02*
X13403039Y-12624936D01*
X13403039Y-12624936D02*
X13412563Y-12615412D01*
X13593515Y-12843984D02*
X13479229Y-12843984D01*
X13536372Y-12843984D02*
X13536372Y-12643984D01*
X13536372Y-12643984D02*
X13517325Y-12672555D01*
X13517325Y-12672555D02*
X13498277Y-12691603D01*
X13498277Y-12691603D02*
X13479229Y-12701127D01*
X13831610Y-12843984D02*
X13831610Y-12643984D01*
X13917325Y-12843984D02*
X13917325Y-12739222D01*
X13917325Y-12739222D02*
X13907801Y-12720174D01*
X13907801Y-12720174D02*
X13888753Y-12710650D01*
X13888753Y-12710650D02*
X13860182Y-12710650D01*
X13860182Y-12710650D02*
X13841134Y-12720174D01*
X13841134Y-12720174D02*
X13831610Y-12729698D01*
X14041134Y-12843984D02*
X14022087Y-12834460D01*
X14022087Y-12834460D02*
X14012563Y-12824936D01*
X14012563Y-12824936D02*
X14003039Y-12805888D01*
X14003039Y-12805888D02*
X14003039Y-12748746D01*
X14003039Y-12748746D02*
X14012563Y-12729698D01*
X14012563Y-12729698D02*
X14022087Y-12720174D01*
X14022087Y-12720174D02*
X14041134Y-12710650D01*
X14041134Y-12710650D02*
X14069706Y-12710650D01*
X14069706Y-12710650D02*
X14088753Y-12720174D01*
X14088753Y-12720174D02*
X14098277Y-12729698D01*
X14098277Y-12729698D02*
X14107801Y-12748746D01*
X14107801Y-12748746D02*
X14107801Y-12805888D01*
X14107801Y-12805888D02*
X14098277Y-12824936D01*
X14098277Y-12824936D02*
X14088753Y-12834460D01*
X14088753Y-12834460D02*
X14069706Y-12843984D01*
X14069706Y-12843984D02*
X14041134Y-12843984D01*
X14222087Y-12843984D02*
X14203039Y-12834460D01*
X14203039Y-12834460D02*
X14193515Y-12815412D01*
X14193515Y-12815412D02*
X14193515Y-12643984D01*
X14374468Y-12834460D02*
X14355420Y-12843984D01*
X14355420Y-12843984D02*
X14317325Y-12843984D01*
X14317325Y-12843984D02*
X14298277Y-12834460D01*
X14298277Y-12834460D02*
X14288753Y-12815412D01*
X14288753Y-12815412D02*
X14288753Y-12739222D01*
X14288753Y-12739222D02*
X14298277Y-12720174D01*
X14298277Y-12720174D02*
X14317325Y-12710650D01*
X14317325Y-12710650D02*
X14355420Y-12710650D01*
X14355420Y-12710650D02*
X14374468Y-12720174D01*
X14374468Y-12720174D02*
X14383991Y-12739222D01*
X14383991Y-12739222D02*
X14383991Y-12758269D01*
X14383991Y-12758269D02*
X14288753Y-12777317D01*
X14450658Y-12920174D02*
X14460182Y-12910650D01*
X14460182Y-12910650D02*
X14479230Y-12882079D01*
X14479230Y-12882079D02*
X14488753Y-12863031D01*
X14488753Y-12863031D02*
X14498277Y-12834460D01*
X14498277Y-12834460D02*
X14507801Y-12786841D01*
X14507801Y-12786841D02*
X14507801Y-12748746D01*
X14507801Y-12748746D02*
X14498277Y-12701127D01*
X14498277Y-12701127D02*
X14488753Y-12672555D01*
X14488753Y-12672555D02*
X14479230Y-12653508D01*
X14479230Y-12653508D02*
X14460182Y-12624936D01*
X14460182Y-12624936D02*
X14450658Y-12615412D01*
D12*
X9837500Y-13016500D02*
G75*
G02*
X9748600Y-13016500I-44450J0D01*
G01*
X9748600Y-13016500D02*
G75*
G02*
X9837500Y-13016500I44450J0D01*
G01*
D11*
X10136372Y-12907984D02*
X10155420Y-12907984D01*
X10155420Y-12907984D02*
X10174467Y-12917508D01*
X10174467Y-12917508D02*
X10183991Y-12927031D01*
X10183991Y-12927031D02*
X10193515Y-12946079D01*
X10193515Y-12946079D02*
X10203039Y-12984174D01*
X10203039Y-12984174D02*
X10203039Y-13031793D01*
X10203039Y-13031793D02*
X10193515Y-13069888D01*
X10193515Y-13069888D02*
X10183991Y-13088936D01*
X10183991Y-13088936D02*
X10174467Y-13098460D01*
X10174467Y-13098460D02*
X10155420Y-13107984D01*
X10155420Y-13107984D02*
X10136372Y-13107984D01*
X10136372Y-13107984D02*
X10117324Y-13098460D01*
X10117324Y-13098460D02*
X10107801Y-13088936D01*
X10107801Y-13088936D02*
X10098277Y-13069888D01*
X10098277Y-13069888D02*
X10088753Y-13031793D01*
X10088753Y-13031793D02*
X10088753Y-12984174D01*
X10088753Y-12984174D02*
X10098277Y-12946079D01*
X10098277Y-12946079D02*
X10107801Y-12927031D01*
X10107801Y-12927031D02*
X10117324Y-12917508D01*
X10117324Y-12917508D02*
X10136372Y-12907984D01*
X10288753Y-13088936D02*
X10298277Y-13098460D01*
X10298277Y-13098460D02*
X10288753Y-13107984D01*
X10288753Y-13107984D02*
X10279229Y-13098460D01*
X10279229Y-13098460D02*
X10288753Y-13088936D01*
X10288753Y-13088936D02*
X10288753Y-13107984D01*
X10412563Y-12993698D02*
X10393515Y-12984174D01*
X10393515Y-12984174D02*
X10383991Y-12974650D01*
X10383991Y-12974650D02*
X10374467Y-12955603D01*
X10374467Y-12955603D02*
X10374467Y-12946079D01*
X10374467Y-12946079D02*
X10383991Y-12927031D01*
X10383991Y-12927031D02*
X10393515Y-12917508D01*
X10393515Y-12917508D02*
X10412563Y-12907984D01*
X10412563Y-12907984D02*
X10450658Y-12907984D01*
X10450658Y-12907984D02*
X10469705Y-12917508D01*
X10469705Y-12917508D02*
X10479229Y-12927031D01*
X10479229Y-12927031D02*
X10488753Y-12946079D01*
X10488753Y-12946079D02*
X10488753Y-12955603D01*
X10488753Y-12955603D02*
X10479229Y-12974650D01*
X10479229Y-12974650D02*
X10469705Y-12984174D01*
X10469705Y-12984174D02*
X10450658Y-12993698D01*
X10450658Y-12993698D02*
X10412563Y-12993698D01*
X10412563Y-12993698D02*
X10393515Y-13003222D01*
X10393515Y-13003222D02*
X10383991Y-13012746D01*
X10383991Y-13012746D02*
X10374467Y-13031793D01*
X10374467Y-13031793D02*
X10374467Y-13069888D01*
X10374467Y-13069888D02*
X10383991Y-13088936D01*
X10383991Y-13088936D02*
X10393515Y-13098460D01*
X10393515Y-13098460D02*
X10412563Y-13107984D01*
X10412563Y-13107984D02*
X10450658Y-13107984D01*
X10450658Y-13107984D02*
X10469705Y-13098460D01*
X10469705Y-13098460D02*
X10479229Y-13088936D01*
X10479229Y-13088936D02*
X10488753Y-13069888D01*
X10488753Y-13069888D02*
X10488753Y-13031793D01*
X10488753Y-13031793D02*
X10479229Y-13012746D01*
X10479229Y-13012746D02*
X10469705Y-13003222D01*
X10469705Y-13003222D02*
X10450658Y-12993698D01*
X10603039Y-12993698D02*
X10583991Y-12984174D01*
X10583991Y-12984174D02*
X10574467Y-12974650D01*
X10574467Y-12974650D02*
X10564944Y-12955603D01*
X10564944Y-12955603D02*
X10564944Y-12946079D01*
X10564944Y-12946079D02*
X10574467Y-12927031D01*
X10574467Y-12927031D02*
X10583991Y-12917508D01*
X10583991Y-12917508D02*
X10603039Y-12907984D01*
X10603039Y-12907984D02*
X10641134Y-12907984D01*
X10641134Y-12907984D02*
X10660182Y-12917508D01*
X10660182Y-12917508D02*
X10669705Y-12927031D01*
X10669705Y-12927031D02*
X10679229Y-12946079D01*
X10679229Y-12946079D02*
X10679229Y-12955603D01*
X10679229Y-12955603D02*
X10669705Y-12974650D01*
X10669705Y-12974650D02*
X10660182Y-12984174D01*
X10660182Y-12984174D02*
X10641134Y-12993698D01*
X10641134Y-12993698D02*
X10603039Y-12993698D01*
X10603039Y-12993698D02*
X10583991Y-13003222D01*
X10583991Y-13003222D02*
X10574467Y-13012746D01*
X10574467Y-13012746D02*
X10564944Y-13031793D01*
X10564944Y-13031793D02*
X10564944Y-13069888D01*
X10564944Y-13069888D02*
X10574467Y-13088936D01*
X10574467Y-13088936D02*
X10583991Y-13098460D01*
X10583991Y-13098460D02*
X10603039Y-13107984D01*
X10603039Y-13107984D02*
X10641134Y-13107984D01*
X10641134Y-13107984D02*
X10660182Y-13098460D01*
X10660182Y-13098460D02*
X10669705Y-13088936D01*
X10669705Y-13088936D02*
X10679229Y-13069888D01*
X10679229Y-13069888D02*
X10679229Y-13031793D01*
X10679229Y-13031793D02*
X10669705Y-13012746D01*
X10669705Y-13012746D02*
X10660182Y-13003222D01*
X10660182Y-13003222D02*
X10641134Y-12993698D01*
X10774467Y-13107984D02*
X10812563Y-13107984D01*
X10812563Y-13107984D02*
X10831610Y-13098460D01*
X10831610Y-13098460D02*
X10841134Y-13088936D01*
X10841134Y-13088936D02*
X10860182Y-13060365D01*
X10860182Y-13060365D02*
X10869705Y-13022269D01*
X10869705Y-13022269D02*
X10869705Y-12946079D01*
X10869705Y-12946079D02*
X10860182Y-12927031D01*
X10860182Y-12927031D02*
X10850658Y-12917508D01*
X10850658Y-12917508D02*
X10831610Y-12907984D01*
X10831610Y-12907984D02*
X10793515Y-12907984D01*
X10793515Y-12907984D02*
X10774467Y-12917508D01*
X10774467Y-12917508D02*
X10764944Y-12927031D01*
X10764944Y-12927031D02*
X10755420Y-12946079D01*
X10755420Y-12946079D02*
X10755420Y-12993698D01*
X10755420Y-12993698D02*
X10764944Y-13012746D01*
X10764944Y-13012746D02*
X10774467Y-13022269D01*
X10774467Y-13022269D02*
X10793515Y-13031793D01*
X10793515Y-13031793D02*
X10831610Y-13031793D01*
X10831610Y-13031793D02*
X10850658Y-13022269D01*
X10850658Y-13022269D02*
X10860182Y-13012746D01*
X10860182Y-13012746D02*
X10869705Y-12993698D01*
X10955420Y-13107984D02*
X10955420Y-12974650D01*
X10955420Y-12993698D02*
X10964944Y-12984174D01*
X10964944Y-12984174D02*
X10983991Y-12974650D01*
X10983991Y-12974650D02*
X11012563Y-12974650D01*
X11012563Y-12974650D02*
X11031610Y-12984174D01*
X11031610Y-12984174D02*
X11041134Y-13003222D01*
X11041134Y-13003222D02*
X11041134Y-13107984D01*
X11041134Y-13003222D02*
X11050658Y-12984174D01*
X11050658Y-12984174D02*
X11069705Y-12974650D01*
X11069705Y-12974650D02*
X11098277Y-12974650D01*
X11098277Y-12974650D02*
X11117325Y-12984174D01*
X11117325Y-12984174D02*
X11126848Y-13003222D01*
X11126848Y-13003222D02*
X11126848Y-13107984D01*
X11222086Y-13107984D02*
X11222086Y-12974650D01*
X11222086Y-12993698D02*
X11231610Y-12984174D01*
X11231610Y-12984174D02*
X11250658Y-12974650D01*
X11250658Y-12974650D02*
X11279229Y-12974650D01*
X11279229Y-12974650D02*
X11298277Y-12984174D01*
X11298277Y-12984174D02*
X11307801Y-13003222D01*
X11307801Y-13003222D02*
X11307801Y-13107984D01*
X11307801Y-13003222D02*
X11317324Y-12984174D01*
X11317324Y-12984174D02*
X11336372Y-12974650D01*
X11336372Y-12974650D02*
X11364943Y-12974650D01*
X11364943Y-12974650D02*
X11383991Y-12984174D01*
X11383991Y-12984174D02*
X11393515Y-13003222D01*
X11393515Y-13003222D02*
X11393515Y-13107984D01*
X11783991Y-12898460D02*
X11612563Y-13155603D01*
X12041134Y-12907984D02*
X12060182Y-12907984D01*
X12060182Y-12907984D02*
X12079229Y-12917508D01*
X12079229Y-12917508D02*
X12088753Y-12927031D01*
X12088753Y-12927031D02*
X12098277Y-12946079D01*
X12098277Y-12946079D02*
X12107801Y-12984174D01*
X12107801Y-12984174D02*
X12107801Y-13031793D01*
X12107801Y-13031793D02*
X12098277Y-13069888D01*
X12098277Y-13069888D02*
X12088753Y-13088936D01*
X12088753Y-13088936D02*
X12079229Y-13098460D01*
X12079229Y-13098460D02*
X12060182Y-13107984D01*
X12060182Y-13107984D02*
X12041134Y-13107984D01*
X12041134Y-13107984D02*
X12022086Y-13098460D01*
X12022086Y-13098460D02*
X12012563Y-13088936D01*
X12012563Y-13088936D02*
X12003039Y-13069888D01*
X12003039Y-13069888D02*
X11993515Y-13031793D01*
X11993515Y-13031793D02*
X11993515Y-12984174D01*
X11993515Y-12984174D02*
X12003039Y-12946079D01*
X12003039Y-12946079D02*
X12012563Y-12927031D01*
X12012563Y-12927031D02*
X12022086Y-12917508D01*
X12022086Y-12917508D02*
X12041134Y-12907984D01*
X12193515Y-13088936D02*
X12203039Y-13098460D01*
X12203039Y-13098460D02*
X12193515Y-13107984D01*
X12193515Y-13107984D02*
X12183991Y-13098460D01*
X12183991Y-13098460D02*
X12193515Y-13088936D01*
X12193515Y-13088936D02*
X12193515Y-13107984D01*
X12326848Y-12907984D02*
X12345896Y-12907984D01*
X12345896Y-12907984D02*
X12364944Y-12917508D01*
X12364944Y-12917508D02*
X12374467Y-12927031D01*
X12374467Y-12927031D02*
X12383991Y-12946079D01*
X12383991Y-12946079D02*
X12393515Y-12984174D01*
X12393515Y-12984174D02*
X12393515Y-13031793D01*
X12393515Y-13031793D02*
X12383991Y-13069888D01*
X12383991Y-13069888D02*
X12374467Y-13088936D01*
X12374467Y-13088936D02*
X12364944Y-13098460D01*
X12364944Y-13098460D02*
X12345896Y-13107984D01*
X12345896Y-13107984D02*
X12326848Y-13107984D01*
X12326848Y-13107984D02*
X12307801Y-13098460D01*
X12307801Y-13098460D02*
X12298277Y-13088936D01*
X12298277Y-13088936D02*
X12288753Y-13069888D01*
X12288753Y-13069888D02*
X12279229Y-13031793D01*
X12279229Y-13031793D02*
X12279229Y-12984174D01*
X12279229Y-12984174D02*
X12288753Y-12946079D01*
X12288753Y-12946079D02*
X12298277Y-12927031D01*
X12298277Y-12927031D02*
X12307801Y-12917508D01*
X12307801Y-12917508D02*
X12326848Y-12907984D01*
X12460182Y-12907984D02*
X12583991Y-12907984D01*
X12583991Y-12907984D02*
X12517325Y-12984174D01*
X12517325Y-12984174D02*
X12545896Y-12984174D01*
X12545896Y-12984174D02*
X12564944Y-12993698D01*
X12564944Y-12993698D02*
X12574467Y-13003222D01*
X12574467Y-13003222D02*
X12583991Y-13022269D01*
X12583991Y-13022269D02*
X12583991Y-13069888D01*
X12583991Y-13069888D02*
X12574467Y-13088936D01*
X12574467Y-13088936D02*
X12564944Y-13098460D01*
X12564944Y-13098460D02*
X12545896Y-13107984D01*
X12545896Y-13107984D02*
X12488753Y-13107984D01*
X12488753Y-13107984D02*
X12469706Y-13098460D01*
X12469706Y-13098460D02*
X12460182Y-13088936D01*
X12764944Y-12907984D02*
X12669706Y-12907984D01*
X12669706Y-12907984D02*
X12660182Y-13003222D01*
X12660182Y-13003222D02*
X12669706Y-12993698D01*
X12669706Y-12993698D02*
X12688753Y-12984174D01*
X12688753Y-12984174D02*
X12736372Y-12984174D01*
X12736372Y-12984174D02*
X12755420Y-12993698D01*
X12755420Y-12993698D02*
X12764944Y-13003222D01*
X12764944Y-13003222D02*
X12774467Y-13022269D01*
X12774467Y-13022269D02*
X12774467Y-13069888D01*
X12774467Y-13069888D02*
X12764944Y-13088936D01*
X12764944Y-13088936D02*
X12755420Y-13098460D01*
X12755420Y-13098460D02*
X12736372Y-13107984D01*
X12736372Y-13107984D02*
X12688753Y-13107984D01*
X12688753Y-13107984D02*
X12669706Y-13098460D01*
X12669706Y-13098460D02*
X12660182Y-13088936D01*
X12898277Y-12907984D02*
X12917325Y-12907984D01*
X12917325Y-12907984D02*
X12936372Y-12917508D01*
X12936372Y-12917508D02*
X12945896Y-12927031D01*
X12945896Y-12927031D02*
X12955420Y-12946079D01*
X12955420Y-12946079D02*
X12964944Y-12984174D01*
X12964944Y-12984174D02*
X12964944Y-13031793D01*
X12964944Y-13031793D02*
X12955420Y-13069888D01*
X12955420Y-13069888D02*
X12945896Y-13088936D01*
X12945896Y-13088936D02*
X12936372Y-13098460D01*
X12936372Y-13098460D02*
X12917325Y-13107984D01*
X12917325Y-13107984D02*
X12898277Y-13107984D01*
X12898277Y-13107984D02*
X12879229Y-13098460D01*
X12879229Y-13098460D02*
X12869706Y-13088936D01*
X12869706Y-13088936D02*
X12860182Y-13069888D01*
X12860182Y-13069888D02*
X12850658Y-13031793D01*
X12850658Y-13031793D02*
X12850658Y-12984174D01*
X12850658Y-12984174D02*
X12860182Y-12946079D01*
X12860182Y-12946079D02*
X12869706Y-12927031D01*
X12869706Y-12927031D02*
X12879229Y-12917508D01*
X12879229Y-12917508D02*
X12898277Y-12907984D01*
X13041134Y-12907984D02*
X13041134Y-12946079D01*
X13117325Y-12907984D02*
X13117325Y-12946079D01*
X13412563Y-13184174D02*
X13403039Y-13174650D01*
X13403039Y-13174650D02*
X13383991Y-13146079D01*
X13383991Y-13146079D02*
X13374468Y-13127031D01*
X13374468Y-13127031D02*
X13364944Y-13098460D01*
X13364944Y-13098460D02*
X13355420Y-13050841D01*
X13355420Y-13050841D02*
X13355420Y-13012746D01*
X13355420Y-13012746D02*
X13364944Y-12965127D01*
X13364944Y-12965127D02*
X13374468Y-12936555D01*
X13374468Y-12936555D02*
X13383991Y-12917508D01*
X13383991Y-12917508D02*
X13403039Y-12888936D01*
X13403039Y-12888936D02*
X13412563Y-12879412D01*
X13593515Y-13107984D02*
X13479229Y-13107984D01*
X13536372Y-13107984D02*
X13536372Y-12907984D01*
X13536372Y-12907984D02*
X13517325Y-12936555D01*
X13517325Y-12936555D02*
X13498277Y-12955603D01*
X13498277Y-12955603D02*
X13479229Y-12965127D01*
X13764944Y-12974650D02*
X13764944Y-13107984D01*
X13717325Y-12898460D02*
X13669706Y-13041317D01*
X13669706Y-13041317D02*
X13793515Y-13041317D01*
X14022087Y-13107984D02*
X14022087Y-12907984D01*
X14107801Y-13107984D02*
X14107801Y-13003222D01*
X14107801Y-13003222D02*
X14098277Y-12984174D01*
X14098277Y-12984174D02*
X14079230Y-12974650D01*
X14079230Y-12974650D02*
X14050658Y-12974650D01*
X14050658Y-12974650D02*
X14031610Y-12984174D01*
X14031610Y-12984174D02*
X14022087Y-12993698D01*
X14231610Y-13107984D02*
X14212563Y-13098460D01*
X14212563Y-13098460D02*
X14203039Y-13088936D01*
X14203039Y-13088936D02*
X14193515Y-13069888D01*
X14193515Y-13069888D02*
X14193515Y-13012746D01*
X14193515Y-13012746D02*
X14203039Y-12993698D01*
X14203039Y-12993698D02*
X14212563Y-12984174D01*
X14212563Y-12984174D02*
X14231610Y-12974650D01*
X14231610Y-12974650D02*
X14260182Y-12974650D01*
X14260182Y-12974650D02*
X14279230Y-12984174D01*
X14279230Y-12984174D02*
X14288753Y-12993698D01*
X14288753Y-12993698D02*
X14298277Y-13012746D01*
X14298277Y-13012746D02*
X14298277Y-13069888D01*
X14298277Y-13069888D02*
X14288753Y-13088936D01*
X14288753Y-13088936D02*
X14279230Y-13098460D01*
X14279230Y-13098460D02*
X14260182Y-13107984D01*
X14260182Y-13107984D02*
X14231610Y-13107984D01*
X14412563Y-13107984D02*
X14393515Y-13098460D01*
X14393515Y-13098460D02*
X14383991Y-13079412D01*
X14383991Y-13079412D02*
X14383991Y-12907984D01*
X14564944Y-13098460D02*
X14545896Y-13107984D01*
X14545896Y-13107984D02*
X14507801Y-13107984D01*
X14507801Y-13107984D02*
X14488753Y-13098460D01*
X14488753Y-13098460D02*
X14479230Y-13079412D01*
X14479230Y-13079412D02*
X14479230Y-13003222D01*
X14479230Y-13003222D02*
X14488753Y-12984174D01*
X14488753Y-12984174D02*
X14507801Y-12974650D01*
X14507801Y-12974650D02*
X14545896Y-12974650D01*
X14545896Y-12974650D02*
X14564944Y-12984174D01*
X14564944Y-12984174D02*
X14574468Y-13003222D01*
X14574468Y-13003222D02*
X14574468Y-13022269D01*
X14574468Y-13022269D02*
X14479230Y-13041317D01*
X14650658Y-13098460D02*
X14669706Y-13107984D01*
X14669706Y-13107984D02*
X14707801Y-13107984D01*
X14707801Y-13107984D02*
X14726849Y-13098460D01*
X14726849Y-13098460D02*
X14736372Y-13079412D01*
X14736372Y-13079412D02*
X14736372Y-13069888D01*
X14736372Y-13069888D02*
X14726849Y-13050841D01*
X14726849Y-13050841D02*
X14707801Y-13041317D01*
X14707801Y-13041317D02*
X14679230Y-13041317D01*
X14679230Y-13041317D02*
X14660182Y-13031793D01*
X14660182Y-13031793D02*
X14650658Y-13012746D01*
X14650658Y-13012746D02*
X14650658Y-13003222D01*
X14650658Y-13003222D02*
X14660182Y-12984174D01*
X14660182Y-12984174D02*
X14679230Y-12974650D01*
X14679230Y-12974650D02*
X14707801Y-12974650D01*
X14707801Y-12974650D02*
X14726849Y-12984174D01*
X14803039Y-13184174D02*
X14812563Y-13174650D01*
X14812563Y-13174650D02*
X14831611Y-13146079D01*
X14831611Y-13146079D02*
X14841134Y-13127031D01*
X14841134Y-13127031D02*
X14850658Y-13098460D01*
X14850658Y-13098460D02*
X14860182Y-13050841D01*
X14860182Y-13050841D02*
X14860182Y-13012746D01*
X14860182Y-13012746D02*
X14850658Y-12965127D01*
X14850658Y-12965127D02*
X14841134Y-12936555D01*
X14841134Y-12936555D02*
X14831611Y-12917508D01*
X14831611Y-12917508D02*
X14812563Y-12888936D01*
X14812563Y-12888936D02*
X14803039Y-12879412D01*
D12*
X9787500Y-13230500D02*
X9787500Y-13330500D01*
X9737500Y-13280500D02*
X9837500Y-13280500D01*
D11*
X10203039Y-13371984D02*
X10088753Y-13371984D01*
X10145896Y-13371984D02*
X10145896Y-13171984D01*
X10145896Y-13171984D02*
X10126848Y-13200555D01*
X10126848Y-13200555D02*
X10107801Y-13219603D01*
X10107801Y-13219603D02*
X10088753Y-13229127D01*
X10288753Y-13352936D02*
X10298277Y-13362460D01*
X10298277Y-13362460D02*
X10288753Y-13371984D01*
X10288753Y-13371984D02*
X10279229Y-13362460D01*
X10279229Y-13362460D02*
X10288753Y-13352936D01*
X10288753Y-13352936D02*
X10288753Y-13371984D01*
X10422086Y-13171984D02*
X10441134Y-13171984D01*
X10441134Y-13171984D02*
X10460182Y-13181508D01*
X10460182Y-13181508D02*
X10469705Y-13191031D01*
X10469705Y-13191031D02*
X10479229Y-13210079D01*
X10479229Y-13210079D02*
X10488753Y-13248174D01*
X10488753Y-13248174D02*
X10488753Y-13295793D01*
X10488753Y-13295793D02*
X10479229Y-13333888D01*
X10479229Y-13333888D02*
X10469705Y-13352936D01*
X10469705Y-13352936D02*
X10460182Y-13362460D01*
X10460182Y-13362460D02*
X10441134Y-13371984D01*
X10441134Y-13371984D02*
X10422086Y-13371984D01*
X10422086Y-13371984D02*
X10403039Y-13362460D01*
X10403039Y-13362460D02*
X10393515Y-13352936D01*
X10393515Y-13352936D02*
X10383991Y-13333888D01*
X10383991Y-13333888D02*
X10374467Y-13295793D01*
X10374467Y-13295793D02*
X10374467Y-13248174D01*
X10374467Y-13248174D02*
X10383991Y-13210079D01*
X10383991Y-13210079D02*
X10393515Y-13191031D01*
X10393515Y-13191031D02*
X10403039Y-13181508D01*
X10403039Y-13181508D02*
X10422086Y-13171984D01*
X10612563Y-13171984D02*
X10631610Y-13171984D01*
X10631610Y-13171984D02*
X10650658Y-13181508D01*
X10650658Y-13181508D02*
X10660182Y-13191031D01*
X10660182Y-13191031D02*
X10669705Y-13210079D01*
X10669705Y-13210079D02*
X10679229Y-13248174D01*
X10679229Y-13248174D02*
X10679229Y-13295793D01*
X10679229Y-13295793D02*
X10669705Y-13333888D01*
X10669705Y-13333888D02*
X10660182Y-13352936D01*
X10660182Y-13352936D02*
X10650658Y-13362460D01*
X10650658Y-13362460D02*
X10631610Y-13371984D01*
X10631610Y-13371984D02*
X10612563Y-13371984D01*
X10612563Y-13371984D02*
X10593515Y-13362460D01*
X10593515Y-13362460D02*
X10583991Y-13352936D01*
X10583991Y-13352936D02*
X10574467Y-13333888D01*
X10574467Y-13333888D02*
X10564944Y-13295793D01*
X10564944Y-13295793D02*
X10564944Y-13248174D01*
X10564944Y-13248174D02*
X10574467Y-13210079D01*
X10574467Y-13210079D02*
X10583991Y-13191031D01*
X10583991Y-13191031D02*
X10593515Y-13181508D01*
X10593515Y-13181508D02*
X10612563Y-13171984D01*
X10803039Y-13171984D02*
X10822086Y-13171984D01*
X10822086Y-13171984D02*
X10841134Y-13181508D01*
X10841134Y-13181508D02*
X10850658Y-13191031D01*
X10850658Y-13191031D02*
X10860182Y-13210079D01*
X10860182Y-13210079D02*
X10869705Y-13248174D01*
X10869705Y-13248174D02*
X10869705Y-13295793D01*
X10869705Y-13295793D02*
X10860182Y-13333888D01*
X10860182Y-13333888D02*
X10850658Y-13352936D01*
X10850658Y-13352936D02*
X10841134Y-13362460D01*
X10841134Y-13362460D02*
X10822086Y-13371984D01*
X10822086Y-13371984D02*
X10803039Y-13371984D01*
X10803039Y-13371984D02*
X10783991Y-13362460D01*
X10783991Y-13362460D02*
X10774467Y-13352936D01*
X10774467Y-13352936D02*
X10764944Y-13333888D01*
X10764944Y-13333888D02*
X10755420Y-13295793D01*
X10755420Y-13295793D02*
X10755420Y-13248174D01*
X10755420Y-13248174D02*
X10764944Y-13210079D01*
X10764944Y-13210079D02*
X10774467Y-13191031D01*
X10774467Y-13191031D02*
X10783991Y-13181508D01*
X10783991Y-13181508D02*
X10803039Y-13171984D01*
X10955420Y-13371984D02*
X10955420Y-13238650D01*
X10955420Y-13257698D02*
X10964944Y-13248174D01*
X10964944Y-13248174D02*
X10983991Y-13238650D01*
X10983991Y-13238650D02*
X11012563Y-13238650D01*
X11012563Y-13238650D02*
X11031610Y-13248174D01*
X11031610Y-13248174D02*
X11041134Y-13267222D01*
X11041134Y-13267222D02*
X11041134Y-13371984D01*
X11041134Y-13267222D02*
X11050658Y-13248174D01*
X11050658Y-13248174D02*
X11069705Y-13238650D01*
X11069705Y-13238650D02*
X11098277Y-13238650D01*
X11098277Y-13238650D02*
X11117325Y-13248174D01*
X11117325Y-13248174D02*
X11126848Y-13267222D01*
X11126848Y-13267222D02*
X11126848Y-13371984D01*
X11222086Y-13371984D02*
X11222086Y-13238650D01*
X11222086Y-13257698D02*
X11231610Y-13248174D01*
X11231610Y-13248174D02*
X11250658Y-13238650D01*
X11250658Y-13238650D02*
X11279229Y-13238650D01*
X11279229Y-13238650D02*
X11298277Y-13248174D01*
X11298277Y-13248174D02*
X11307801Y-13267222D01*
X11307801Y-13267222D02*
X11307801Y-13371984D01*
X11307801Y-13267222D02*
X11317324Y-13248174D01*
X11317324Y-13248174D02*
X11336372Y-13238650D01*
X11336372Y-13238650D02*
X11364943Y-13238650D01*
X11364943Y-13238650D02*
X11383991Y-13248174D01*
X11383991Y-13248174D02*
X11393515Y-13267222D01*
X11393515Y-13267222D02*
X11393515Y-13371984D01*
X11783991Y-13162460D02*
X11612563Y-13419603D01*
X12041134Y-13171984D02*
X12060182Y-13171984D01*
X12060182Y-13171984D02*
X12079229Y-13181508D01*
X12079229Y-13181508D02*
X12088753Y-13191031D01*
X12088753Y-13191031D02*
X12098277Y-13210079D01*
X12098277Y-13210079D02*
X12107801Y-13248174D01*
X12107801Y-13248174D02*
X12107801Y-13295793D01*
X12107801Y-13295793D02*
X12098277Y-13333888D01*
X12098277Y-13333888D02*
X12088753Y-13352936D01*
X12088753Y-13352936D02*
X12079229Y-13362460D01*
X12079229Y-13362460D02*
X12060182Y-13371984D01*
X12060182Y-13371984D02*
X12041134Y-13371984D01*
X12041134Y-13371984D02*
X12022086Y-13362460D01*
X12022086Y-13362460D02*
X12012563Y-13352936D01*
X12012563Y-13352936D02*
X12003039Y-13333888D01*
X12003039Y-13333888D02*
X11993515Y-13295793D01*
X11993515Y-13295793D02*
X11993515Y-13248174D01*
X11993515Y-13248174D02*
X12003039Y-13210079D01*
X12003039Y-13210079D02*
X12012563Y-13191031D01*
X12012563Y-13191031D02*
X12022086Y-13181508D01*
X12022086Y-13181508D02*
X12041134Y-13171984D01*
X12193515Y-13352936D02*
X12203039Y-13362460D01*
X12203039Y-13362460D02*
X12193515Y-13371984D01*
X12193515Y-13371984D02*
X12183991Y-13362460D01*
X12183991Y-13362460D02*
X12193515Y-13352936D01*
X12193515Y-13352936D02*
X12193515Y-13371984D01*
X12326848Y-13171984D02*
X12345896Y-13171984D01*
X12345896Y-13171984D02*
X12364944Y-13181508D01*
X12364944Y-13181508D02*
X12374467Y-13191031D01*
X12374467Y-13191031D02*
X12383991Y-13210079D01*
X12383991Y-13210079D02*
X12393515Y-13248174D01*
X12393515Y-13248174D02*
X12393515Y-13295793D01*
X12393515Y-13295793D02*
X12383991Y-13333888D01*
X12383991Y-13333888D02*
X12374467Y-13352936D01*
X12374467Y-13352936D02*
X12364944Y-13362460D01*
X12364944Y-13362460D02*
X12345896Y-13371984D01*
X12345896Y-13371984D02*
X12326848Y-13371984D01*
X12326848Y-13371984D02*
X12307801Y-13362460D01*
X12307801Y-13362460D02*
X12298277Y-13352936D01*
X12298277Y-13352936D02*
X12288753Y-13333888D01*
X12288753Y-13333888D02*
X12279229Y-13295793D01*
X12279229Y-13295793D02*
X12279229Y-13248174D01*
X12279229Y-13248174D02*
X12288753Y-13210079D01*
X12288753Y-13210079D02*
X12298277Y-13191031D01*
X12298277Y-13191031D02*
X12307801Y-13181508D01*
X12307801Y-13181508D02*
X12326848Y-13171984D01*
X12460182Y-13171984D02*
X12583991Y-13171984D01*
X12583991Y-13171984D02*
X12517325Y-13248174D01*
X12517325Y-13248174D02*
X12545896Y-13248174D01*
X12545896Y-13248174D02*
X12564944Y-13257698D01*
X12564944Y-13257698D02*
X12574467Y-13267222D01*
X12574467Y-13267222D02*
X12583991Y-13286269D01*
X12583991Y-13286269D02*
X12583991Y-13333888D01*
X12583991Y-13333888D02*
X12574467Y-13352936D01*
X12574467Y-13352936D02*
X12564944Y-13362460D01*
X12564944Y-13362460D02*
X12545896Y-13371984D01*
X12545896Y-13371984D02*
X12488753Y-13371984D01*
X12488753Y-13371984D02*
X12469706Y-13362460D01*
X12469706Y-13362460D02*
X12460182Y-13352936D01*
X12679229Y-13371984D02*
X12717325Y-13371984D01*
X12717325Y-13371984D02*
X12736372Y-13362460D01*
X12736372Y-13362460D02*
X12745896Y-13352936D01*
X12745896Y-13352936D02*
X12764944Y-13324365D01*
X12764944Y-13324365D02*
X12774467Y-13286269D01*
X12774467Y-13286269D02*
X12774467Y-13210079D01*
X12774467Y-13210079D02*
X12764944Y-13191031D01*
X12764944Y-13191031D02*
X12755420Y-13181508D01*
X12755420Y-13181508D02*
X12736372Y-13171984D01*
X12736372Y-13171984D02*
X12698277Y-13171984D01*
X12698277Y-13171984D02*
X12679229Y-13181508D01*
X12679229Y-13181508D02*
X12669706Y-13191031D01*
X12669706Y-13191031D02*
X12660182Y-13210079D01*
X12660182Y-13210079D02*
X12660182Y-13257698D01*
X12660182Y-13257698D02*
X12669706Y-13276746D01*
X12669706Y-13276746D02*
X12679229Y-13286269D01*
X12679229Y-13286269D02*
X12698277Y-13295793D01*
X12698277Y-13295793D02*
X12736372Y-13295793D01*
X12736372Y-13295793D02*
X12755420Y-13286269D01*
X12755420Y-13286269D02*
X12764944Y-13276746D01*
X12764944Y-13276746D02*
X12774467Y-13257698D01*
X12945896Y-13238650D02*
X12945896Y-13371984D01*
X12898277Y-13162460D02*
X12850658Y-13305317D01*
X12850658Y-13305317D02*
X12974467Y-13305317D01*
X13041134Y-13171984D02*
X13041134Y-13210079D01*
X13117325Y-13171984D02*
X13117325Y-13210079D01*
X13412563Y-13448174D02*
X13403039Y-13438650D01*
X13403039Y-13438650D02*
X13383991Y-13410079D01*
X13383991Y-13410079D02*
X13374468Y-13391031D01*
X13374468Y-13391031D02*
X13364944Y-13362460D01*
X13364944Y-13362460D02*
X13355420Y-13314841D01*
X13355420Y-13314841D02*
X13355420Y-13276746D01*
X13355420Y-13276746D02*
X13364944Y-13229127D01*
X13364944Y-13229127D02*
X13374468Y-13200555D01*
X13374468Y-13200555D02*
X13383991Y-13181508D01*
X13383991Y-13181508D02*
X13403039Y-13152936D01*
X13403039Y-13152936D02*
X13412563Y-13143412D01*
X13583991Y-13171984D02*
X13488753Y-13171984D01*
X13488753Y-13171984D02*
X13479229Y-13267222D01*
X13479229Y-13267222D02*
X13488753Y-13257698D01*
X13488753Y-13257698D02*
X13507801Y-13248174D01*
X13507801Y-13248174D02*
X13555420Y-13248174D01*
X13555420Y-13248174D02*
X13574468Y-13257698D01*
X13574468Y-13257698D02*
X13583991Y-13267222D01*
X13583991Y-13267222D02*
X13593515Y-13286269D01*
X13593515Y-13286269D02*
X13593515Y-13333888D01*
X13593515Y-13333888D02*
X13583991Y-13352936D01*
X13583991Y-13352936D02*
X13574468Y-13362460D01*
X13574468Y-13362460D02*
X13555420Y-13371984D01*
X13555420Y-13371984D02*
X13507801Y-13371984D01*
X13507801Y-13371984D02*
X13488753Y-13362460D01*
X13488753Y-13362460D02*
X13479229Y-13352936D01*
X13831610Y-13371984D02*
X13831610Y-13171984D01*
X13917325Y-13371984D02*
X13917325Y-13267222D01*
X13917325Y-13267222D02*
X13907801Y-13248174D01*
X13907801Y-13248174D02*
X13888753Y-13238650D01*
X13888753Y-13238650D02*
X13860182Y-13238650D01*
X13860182Y-13238650D02*
X13841134Y-13248174D01*
X13841134Y-13248174D02*
X13831610Y-13257698D01*
X14041134Y-13371984D02*
X14022087Y-13362460D01*
X14022087Y-13362460D02*
X14012563Y-13352936D01*
X14012563Y-13352936D02*
X14003039Y-13333888D01*
X14003039Y-13333888D02*
X14003039Y-13276746D01*
X14003039Y-13276746D02*
X14012563Y-13257698D01*
X14012563Y-13257698D02*
X14022087Y-13248174D01*
X14022087Y-13248174D02*
X14041134Y-13238650D01*
X14041134Y-13238650D02*
X14069706Y-13238650D01*
X14069706Y-13238650D02*
X14088753Y-13248174D01*
X14088753Y-13248174D02*
X14098277Y-13257698D01*
X14098277Y-13257698D02*
X14107801Y-13276746D01*
X14107801Y-13276746D02*
X14107801Y-13333888D01*
X14107801Y-13333888D02*
X14098277Y-13352936D01*
X14098277Y-13352936D02*
X14088753Y-13362460D01*
X14088753Y-13362460D02*
X14069706Y-13371984D01*
X14069706Y-13371984D02*
X14041134Y-13371984D01*
X14222087Y-13371984D02*
X14203039Y-13362460D01*
X14203039Y-13362460D02*
X14193515Y-13343412D01*
X14193515Y-13343412D02*
X14193515Y-13171984D01*
X14374468Y-13362460D02*
X14355420Y-13371984D01*
X14355420Y-13371984D02*
X14317325Y-13371984D01*
X14317325Y-13371984D02*
X14298277Y-13362460D01*
X14298277Y-13362460D02*
X14288753Y-13343412D01*
X14288753Y-13343412D02*
X14288753Y-13267222D01*
X14288753Y-13267222D02*
X14298277Y-13248174D01*
X14298277Y-13248174D02*
X14317325Y-13238650D01*
X14317325Y-13238650D02*
X14355420Y-13238650D01*
X14355420Y-13238650D02*
X14374468Y-13248174D01*
X14374468Y-13248174D02*
X14383991Y-13267222D01*
X14383991Y-13267222D02*
X14383991Y-13286269D01*
X14383991Y-13286269D02*
X14288753Y-13305317D01*
X14460182Y-13362460D02*
X14479230Y-13371984D01*
X14479230Y-13371984D02*
X14517325Y-13371984D01*
X14517325Y-13371984D02*
X14536372Y-13362460D01*
X14536372Y-13362460D02*
X14545896Y-13343412D01*
X14545896Y-13343412D02*
X14545896Y-13333888D01*
X14545896Y-13333888D02*
X14536372Y-13314841D01*
X14536372Y-13314841D02*
X14517325Y-13305317D01*
X14517325Y-13305317D02*
X14488753Y-13305317D01*
X14488753Y-13305317D02*
X14469706Y-13295793D01*
X14469706Y-13295793D02*
X14460182Y-13276746D01*
X14460182Y-13276746D02*
X14460182Y-13267222D01*
X14460182Y-13267222D02*
X14469706Y-13248174D01*
X14469706Y-13248174D02*
X14488753Y-13238650D01*
X14488753Y-13238650D02*
X14517325Y-13238650D01*
X14517325Y-13238650D02*
X14536372Y-13248174D01*
X14612563Y-13448174D02*
X14622087Y-13438650D01*
X14622087Y-13438650D02*
X14641134Y-13410079D01*
X14641134Y-13410079D02*
X14650658Y-13391031D01*
X14650658Y-13391031D02*
X14660182Y-13362460D01*
X14660182Y-13362460D02*
X14669706Y-13314841D01*
X14669706Y-13314841D02*
X14669706Y-13276746D01*
X14669706Y-13276746D02*
X14660182Y-13229127D01*
X14660182Y-13229127D02*
X14650658Y-13200555D01*
X14650658Y-13200555D02*
X14641134Y-13181508D01*
X14641134Y-13181508D02*
X14622087Y-13152936D01*
X14622087Y-13152936D02*
X14612563Y-13143412D01*
D13*
X9815534Y-13597533D02*
X9815534Y-13491466D01*
X9709467Y-13491466D01*
X9709467Y-13597533D01*
X9815534Y-13597533D01*
D11*
X10203039Y-13635984D02*
X10088753Y-13635984D01*
X10145896Y-13635984D02*
X10145896Y-13435984D01*
X10145896Y-13435984D02*
X10126848Y-13464555D01*
X10126848Y-13464555D02*
X10107801Y-13483603D01*
X10107801Y-13483603D02*
X10088753Y-13493127D01*
X10288753Y-13616936D02*
X10298277Y-13626460D01*
X10298277Y-13626460D02*
X10288753Y-13635984D01*
X10288753Y-13635984D02*
X10279229Y-13626460D01*
X10279229Y-13626460D02*
X10288753Y-13616936D01*
X10288753Y-13616936D02*
X10288753Y-13635984D01*
X10479229Y-13435984D02*
X10383991Y-13435984D01*
X10383991Y-13435984D02*
X10374467Y-13531222D01*
X10374467Y-13531222D02*
X10383991Y-13521698D01*
X10383991Y-13521698D02*
X10403039Y-13512174D01*
X10403039Y-13512174D02*
X10450658Y-13512174D01*
X10450658Y-13512174D02*
X10469705Y-13521698D01*
X10469705Y-13521698D02*
X10479229Y-13531222D01*
X10479229Y-13531222D02*
X10488753Y-13550269D01*
X10488753Y-13550269D02*
X10488753Y-13597888D01*
X10488753Y-13597888D02*
X10479229Y-13616936D01*
X10479229Y-13616936D02*
X10469705Y-13626460D01*
X10469705Y-13626460D02*
X10450658Y-13635984D01*
X10450658Y-13635984D02*
X10403039Y-13635984D01*
X10403039Y-13635984D02*
X10383991Y-13626460D01*
X10383991Y-13626460D02*
X10374467Y-13616936D01*
X10612563Y-13435984D02*
X10631610Y-13435984D01*
X10631610Y-13435984D02*
X10650658Y-13445508D01*
X10650658Y-13445508D02*
X10660182Y-13455031D01*
X10660182Y-13455031D02*
X10669705Y-13474079D01*
X10669705Y-13474079D02*
X10679229Y-13512174D01*
X10679229Y-13512174D02*
X10679229Y-13559793D01*
X10679229Y-13559793D02*
X10669705Y-13597888D01*
X10669705Y-13597888D02*
X10660182Y-13616936D01*
X10660182Y-13616936D02*
X10650658Y-13626460D01*
X10650658Y-13626460D02*
X10631610Y-13635984D01*
X10631610Y-13635984D02*
X10612563Y-13635984D01*
X10612563Y-13635984D02*
X10593515Y-13626460D01*
X10593515Y-13626460D02*
X10583991Y-13616936D01*
X10583991Y-13616936D02*
X10574467Y-13597888D01*
X10574467Y-13597888D02*
X10564944Y-13559793D01*
X10564944Y-13559793D02*
X10564944Y-13512174D01*
X10564944Y-13512174D02*
X10574467Y-13474079D01*
X10574467Y-13474079D02*
X10583991Y-13455031D01*
X10583991Y-13455031D02*
X10593515Y-13445508D01*
X10593515Y-13445508D02*
X10612563Y-13435984D01*
X10803039Y-13435984D02*
X10822086Y-13435984D01*
X10822086Y-13435984D02*
X10841134Y-13445508D01*
X10841134Y-13445508D02*
X10850658Y-13455031D01*
X10850658Y-13455031D02*
X10860182Y-13474079D01*
X10860182Y-13474079D02*
X10869705Y-13512174D01*
X10869705Y-13512174D02*
X10869705Y-13559793D01*
X10869705Y-13559793D02*
X10860182Y-13597888D01*
X10860182Y-13597888D02*
X10850658Y-13616936D01*
X10850658Y-13616936D02*
X10841134Y-13626460D01*
X10841134Y-13626460D02*
X10822086Y-13635984D01*
X10822086Y-13635984D02*
X10803039Y-13635984D01*
X10803039Y-13635984D02*
X10783991Y-13626460D01*
X10783991Y-13626460D02*
X10774467Y-13616936D01*
X10774467Y-13616936D02*
X10764944Y-13597888D01*
X10764944Y-13597888D02*
X10755420Y-13559793D01*
X10755420Y-13559793D02*
X10755420Y-13512174D01*
X10755420Y-13512174D02*
X10764944Y-13474079D01*
X10764944Y-13474079D02*
X10774467Y-13455031D01*
X10774467Y-13455031D02*
X10783991Y-13445508D01*
X10783991Y-13445508D02*
X10803039Y-13435984D01*
X10955420Y-13635984D02*
X10955420Y-13502650D01*
X10955420Y-13521698D02*
X10964944Y-13512174D01*
X10964944Y-13512174D02*
X10983991Y-13502650D01*
X10983991Y-13502650D02*
X11012563Y-13502650D01*
X11012563Y-13502650D02*
X11031610Y-13512174D01*
X11031610Y-13512174D02*
X11041134Y-13531222D01*
X11041134Y-13531222D02*
X11041134Y-13635984D01*
X11041134Y-13531222D02*
X11050658Y-13512174D01*
X11050658Y-13512174D02*
X11069705Y-13502650D01*
X11069705Y-13502650D02*
X11098277Y-13502650D01*
X11098277Y-13502650D02*
X11117325Y-13512174D01*
X11117325Y-13512174D02*
X11126848Y-13531222D01*
X11126848Y-13531222D02*
X11126848Y-13635984D01*
X11222086Y-13635984D02*
X11222086Y-13502650D01*
X11222086Y-13521698D02*
X11231610Y-13512174D01*
X11231610Y-13512174D02*
X11250658Y-13502650D01*
X11250658Y-13502650D02*
X11279229Y-13502650D01*
X11279229Y-13502650D02*
X11298277Y-13512174D01*
X11298277Y-13512174D02*
X11307801Y-13531222D01*
X11307801Y-13531222D02*
X11307801Y-13635984D01*
X11307801Y-13531222D02*
X11317324Y-13512174D01*
X11317324Y-13512174D02*
X11336372Y-13502650D01*
X11336372Y-13502650D02*
X11364943Y-13502650D01*
X11364943Y-13502650D02*
X11383991Y-13512174D01*
X11383991Y-13512174D02*
X11393515Y-13531222D01*
X11393515Y-13531222D02*
X11393515Y-13635984D01*
X11783991Y-13426460D02*
X11612563Y-13683603D01*
X12041134Y-13435984D02*
X12060182Y-13435984D01*
X12060182Y-13435984D02*
X12079229Y-13445508D01*
X12079229Y-13445508D02*
X12088753Y-13455031D01*
X12088753Y-13455031D02*
X12098277Y-13474079D01*
X12098277Y-13474079D02*
X12107801Y-13512174D01*
X12107801Y-13512174D02*
X12107801Y-13559793D01*
X12107801Y-13559793D02*
X12098277Y-13597888D01*
X12098277Y-13597888D02*
X12088753Y-13616936D01*
X12088753Y-13616936D02*
X12079229Y-13626460D01*
X12079229Y-13626460D02*
X12060182Y-13635984D01*
X12060182Y-13635984D02*
X12041134Y-13635984D01*
X12041134Y-13635984D02*
X12022086Y-13626460D01*
X12022086Y-13626460D02*
X12012563Y-13616936D01*
X12012563Y-13616936D02*
X12003039Y-13597888D01*
X12003039Y-13597888D02*
X11993515Y-13559793D01*
X11993515Y-13559793D02*
X11993515Y-13512174D01*
X11993515Y-13512174D02*
X12003039Y-13474079D01*
X12003039Y-13474079D02*
X12012563Y-13455031D01*
X12012563Y-13455031D02*
X12022086Y-13445508D01*
X12022086Y-13445508D02*
X12041134Y-13435984D01*
X12193515Y-13616936D02*
X12203039Y-13626460D01*
X12203039Y-13626460D02*
X12193515Y-13635984D01*
X12193515Y-13635984D02*
X12183991Y-13626460D01*
X12183991Y-13626460D02*
X12193515Y-13616936D01*
X12193515Y-13616936D02*
X12193515Y-13635984D01*
X12326848Y-13435984D02*
X12345896Y-13435984D01*
X12345896Y-13435984D02*
X12364944Y-13445508D01*
X12364944Y-13445508D02*
X12374467Y-13455031D01*
X12374467Y-13455031D02*
X12383991Y-13474079D01*
X12383991Y-13474079D02*
X12393515Y-13512174D01*
X12393515Y-13512174D02*
X12393515Y-13559793D01*
X12393515Y-13559793D02*
X12383991Y-13597888D01*
X12383991Y-13597888D02*
X12374467Y-13616936D01*
X12374467Y-13616936D02*
X12364944Y-13626460D01*
X12364944Y-13626460D02*
X12345896Y-13635984D01*
X12345896Y-13635984D02*
X12326848Y-13635984D01*
X12326848Y-13635984D02*
X12307801Y-13626460D01*
X12307801Y-13626460D02*
X12298277Y-13616936D01*
X12298277Y-13616936D02*
X12288753Y-13597888D01*
X12288753Y-13597888D02*
X12279229Y-13559793D01*
X12279229Y-13559793D02*
X12279229Y-13512174D01*
X12279229Y-13512174D02*
X12288753Y-13474079D01*
X12288753Y-13474079D02*
X12298277Y-13455031D01*
X12298277Y-13455031D02*
X12307801Y-13445508D01*
X12307801Y-13445508D02*
X12326848Y-13435984D01*
X12574467Y-13435984D02*
X12479229Y-13435984D01*
X12479229Y-13435984D02*
X12469706Y-13531222D01*
X12469706Y-13531222D02*
X12479229Y-13521698D01*
X12479229Y-13521698D02*
X12498277Y-13512174D01*
X12498277Y-13512174D02*
X12545896Y-13512174D01*
X12545896Y-13512174D02*
X12564944Y-13521698D01*
X12564944Y-13521698D02*
X12574467Y-13531222D01*
X12574467Y-13531222D02*
X12583991Y-13550269D01*
X12583991Y-13550269D02*
X12583991Y-13597888D01*
X12583991Y-13597888D02*
X12574467Y-13616936D01*
X12574467Y-13616936D02*
X12564944Y-13626460D01*
X12564944Y-13626460D02*
X12545896Y-13635984D01*
X12545896Y-13635984D02*
X12498277Y-13635984D01*
X12498277Y-13635984D02*
X12479229Y-13626460D01*
X12479229Y-13626460D02*
X12469706Y-13616936D01*
X12679229Y-13635984D02*
X12717325Y-13635984D01*
X12717325Y-13635984D02*
X12736372Y-13626460D01*
X12736372Y-13626460D02*
X12745896Y-13616936D01*
X12745896Y-13616936D02*
X12764944Y-13588365D01*
X12764944Y-13588365D02*
X12774467Y-13550269D01*
X12774467Y-13550269D02*
X12774467Y-13474079D01*
X12774467Y-13474079D02*
X12764944Y-13455031D01*
X12764944Y-13455031D02*
X12755420Y-13445508D01*
X12755420Y-13445508D02*
X12736372Y-13435984D01*
X12736372Y-13435984D02*
X12698277Y-13435984D01*
X12698277Y-13435984D02*
X12679229Y-13445508D01*
X12679229Y-13445508D02*
X12669706Y-13455031D01*
X12669706Y-13455031D02*
X12660182Y-13474079D01*
X12660182Y-13474079D02*
X12660182Y-13521698D01*
X12660182Y-13521698D02*
X12669706Y-13540746D01*
X12669706Y-13540746D02*
X12679229Y-13550269D01*
X12679229Y-13550269D02*
X12698277Y-13559793D01*
X12698277Y-13559793D02*
X12736372Y-13559793D01*
X12736372Y-13559793D02*
X12755420Y-13550269D01*
X12755420Y-13550269D02*
X12764944Y-13540746D01*
X12764944Y-13540746D02*
X12774467Y-13521698D01*
X12964944Y-13635984D02*
X12850658Y-13635984D01*
X12907801Y-13635984D02*
X12907801Y-13435984D01*
X12907801Y-13435984D02*
X12888753Y-13464555D01*
X12888753Y-13464555D02*
X12869706Y-13483603D01*
X12869706Y-13483603D02*
X12850658Y-13493127D01*
X13041134Y-13435984D02*
X13041134Y-13474079D01*
X13117325Y-13435984D02*
X13117325Y-13474079D01*
X13412563Y-13712174D02*
X13403039Y-13702650D01*
X13403039Y-13702650D02*
X13383991Y-13674079D01*
X13383991Y-13674079D02*
X13374468Y-13655031D01*
X13374468Y-13655031D02*
X13364944Y-13626460D01*
X13364944Y-13626460D02*
X13355420Y-13578841D01*
X13355420Y-13578841D02*
X13355420Y-13540746D01*
X13355420Y-13540746D02*
X13364944Y-13493127D01*
X13364944Y-13493127D02*
X13374468Y-13464555D01*
X13374468Y-13464555D02*
X13383991Y-13445508D01*
X13383991Y-13445508D02*
X13403039Y-13416936D01*
X13403039Y-13416936D02*
X13412563Y-13407412D01*
X13593515Y-13635984D02*
X13479229Y-13635984D01*
X13536372Y-13635984D02*
X13536372Y-13435984D01*
X13536372Y-13435984D02*
X13517325Y-13464555D01*
X13517325Y-13464555D02*
X13498277Y-13483603D01*
X13498277Y-13483603D02*
X13479229Y-13493127D01*
X13764944Y-13502650D02*
X13764944Y-13635984D01*
X13717325Y-13426460D02*
X13669706Y-13569317D01*
X13669706Y-13569317D02*
X13793515Y-13569317D01*
X14022087Y-13635984D02*
X14022087Y-13435984D01*
X14107801Y-13635984D02*
X14107801Y-13531222D01*
X14107801Y-13531222D02*
X14098277Y-13512174D01*
X14098277Y-13512174D02*
X14079230Y-13502650D01*
X14079230Y-13502650D02*
X14050658Y-13502650D01*
X14050658Y-13502650D02*
X14031610Y-13512174D01*
X14031610Y-13512174D02*
X14022087Y-13521698D01*
X14231610Y-13635984D02*
X14212563Y-13626460D01*
X14212563Y-13626460D02*
X14203039Y-13616936D01*
X14203039Y-13616936D02*
X14193515Y-13597888D01*
X14193515Y-13597888D02*
X14193515Y-13540746D01*
X14193515Y-13540746D02*
X14203039Y-13521698D01*
X14203039Y-13521698D02*
X14212563Y-13512174D01*
X14212563Y-13512174D02*
X14231610Y-13502650D01*
X14231610Y-13502650D02*
X14260182Y-13502650D01*
X14260182Y-13502650D02*
X14279230Y-13512174D01*
X14279230Y-13512174D02*
X14288753Y-13521698D01*
X14288753Y-13521698D02*
X14298277Y-13540746D01*
X14298277Y-13540746D02*
X14298277Y-13597888D01*
X14298277Y-13597888D02*
X14288753Y-13616936D01*
X14288753Y-13616936D02*
X14279230Y-13626460D01*
X14279230Y-13626460D02*
X14260182Y-13635984D01*
X14260182Y-13635984D02*
X14231610Y-13635984D01*
X14412563Y-13635984D02*
X14393515Y-13626460D01*
X14393515Y-13626460D02*
X14383991Y-13607412D01*
X14383991Y-13607412D02*
X14383991Y-13435984D01*
X14564944Y-13626460D02*
X14545896Y-13635984D01*
X14545896Y-13635984D02*
X14507801Y-13635984D01*
X14507801Y-13635984D02*
X14488753Y-13626460D01*
X14488753Y-13626460D02*
X14479230Y-13607412D01*
X14479230Y-13607412D02*
X14479230Y-13531222D01*
X14479230Y-13531222D02*
X14488753Y-13512174D01*
X14488753Y-13512174D02*
X14507801Y-13502650D01*
X14507801Y-13502650D02*
X14545896Y-13502650D01*
X14545896Y-13502650D02*
X14564944Y-13512174D01*
X14564944Y-13512174D02*
X14574468Y-13531222D01*
X14574468Y-13531222D02*
X14574468Y-13550269D01*
X14574468Y-13550269D02*
X14479230Y-13569317D01*
X14650658Y-13626460D02*
X14669706Y-13635984D01*
X14669706Y-13635984D02*
X14707801Y-13635984D01*
X14707801Y-13635984D02*
X14726849Y-13626460D01*
X14726849Y-13626460D02*
X14736372Y-13607412D01*
X14736372Y-13607412D02*
X14736372Y-13597888D01*
X14736372Y-13597888D02*
X14726849Y-13578841D01*
X14726849Y-13578841D02*
X14707801Y-13569317D01*
X14707801Y-13569317D02*
X14679230Y-13569317D01*
X14679230Y-13569317D02*
X14660182Y-13559793D01*
X14660182Y-13559793D02*
X14650658Y-13540746D01*
X14650658Y-13540746D02*
X14650658Y-13531222D01*
X14650658Y-13531222D02*
X14660182Y-13512174D01*
X14660182Y-13512174D02*
X14679230Y-13502650D01*
X14679230Y-13502650D02*
X14707801Y-13502650D01*
X14707801Y-13502650D02*
X14726849Y-13512174D01*
X14974468Y-13559793D02*
X15126849Y-13559793D01*
X15050658Y-13635984D02*
X15050658Y-13483603D01*
X15364944Y-13455031D02*
X15374468Y-13445508D01*
X15374468Y-13445508D02*
X15393515Y-13435984D01*
X15393515Y-13435984D02*
X15441134Y-13435984D01*
X15441134Y-13435984D02*
X15460182Y-13445508D01*
X15460182Y-13445508D02*
X15469706Y-13455031D01*
X15469706Y-13455031D02*
X15479230Y-13474079D01*
X15479230Y-13474079D02*
X15479230Y-13493127D01*
X15479230Y-13493127D02*
X15469706Y-13521698D01*
X15469706Y-13521698D02*
X15355420Y-13635984D01*
X15355420Y-13635984D02*
X15479230Y-13635984D01*
X15707801Y-13626460D02*
X15726849Y-13635984D01*
X15726849Y-13635984D02*
X15764944Y-13635984D01*
X15764944Y-13635984D02*
X15783992Y-13626460D01*
X15783992Y-13626460D02*
X15793515Y-13607412D01*
X15793515Y-13607412D02*
X15793515Y-13597888D01*
X15793515Y-13597888D02*
X15783992Y-13578841D01*
X15783992Y-13578841D02*
X15764944Y-13569317D01*
X15764944Y-13569317D02*
X15736373Y-13569317D01*
X15736373Y-13569317D02*
X15717325Y-13559793D01*
X15717325Y-13559793D02*
X15707801Y-13540746D01*
X15707801Y-13540746D02*
X15707801Y-13531222D01*
X15707801Y-13531222D02*
X15717325Y-13512174D01*
X15717325Y-13512174D02*
X15736373Y-13502650D01*
X15736373Y-13502650D02*
X15764944Y-13502650D01*
X15764944Y-13502650D02*
X15783992Y-13512174D01*
X15907801Y-13635984D02*
X15888754Y-13626460D01*
X15888754Y-13626460D02*
X15879230Y-13607412D01*
X15879230Y-13607412D02*
X15879230Y-13435984D01*
X16012563Y-13635984D02*
X15993515Y-13626460D01*
X15993515Y-13626460D02*
X15983992Y-13616936D01*
X15983992Y-13616936D02*
X15974468Y-13597888D01*
X15974468Y-13597888D02*
X15974468Y-13540746D01*
X15974468Y-13540746D02*
X15983992Y-13521698D01*
X15983992Y-13521698D02*
X15993515Y-13512174D01*
X15993515Y-13512174D02*
X16012563Y-13502650D01*
X16012563Y-13502650D02*
X16041135Y-13502650D01*
X16041135Y-13502650D02*
X16060182Y-13512174D01*
X16060182Y-13512174D02*
X16069706Y-13521698D01*
X16069706Y-13521698D02*
X16079230Y-13540746D01*
X16079230Y-13540746D02*
X16079230Y-13597888D01*
X16079230Y-13597888D02*
X16069706Y-13616936D01*
X16069706Y-13616936D02*
X16060182Y-13626460D01*
X16060182Y-13626460D02*
X16041135Y-13635984D01*
X16041135Y-13635984D02*
X16012563Y-13635984D01*
X16136373Y-13502650D02*
X16212563Y-13502650D01*
X16164944Y-13435984D02*
X16164944Y-13607412D01*
X16164944Y-13607412D02*
X16174468Y-13626460D01*
X16174468Y-13626460D02*
X16193515Y-13635984D01*
X16193515Y-13635984D02*
X16212563Y-13635984D01*
X16269706Y-13626460D02*
X16288754Y-13635984D01*
X16288754Y-13635984D02*
X16326849Y-13635984D01*
X16326849Y-13635984D02*
X16345896Y-13626460D01*
X16345896Y-13626460D02*
X16355420Y-13607412D01*
X16355420Y-13607412D02*
X16355420Y-13597888D01*
X16355420Y-13597888D02*
X16345896Y-13578841D01*
X16345896Y-13578841D02*
X16326849Y-13569317D01*
X16326849Y-13569317D02*
X16298277Y-13569317D01*
X16298277Y-13569317D02*
X16279230Y-13559793D01*
X16279230Y-13559793D02*
X16269706Y-13540746D01*
X16269706Y-13540746D02*
X16269706Y-13531222D01*
X16269706Y-13531222D02*
X16279230Y-13512174D01*
X16279230Y-13512174D02*
X16298277Y-13502650D01*
X16298277Y-13502650D02*
X16326849Y-13502650D01*
X16326849Y-13502650D02*
X16345896Y-13512174D01*
X16422087Y-13712174D02*
X16431611Y-13702650D01*
X16431611Y-13702650D02*
X16450658Y-13674079D01*
X16450658Y-13674079D02*
X16460182Y-13655031D01*
X16460182Y-13655031D02*
X16469706Y-13626460D01*
X16469706Y-13626460D02*
X16479230Y-13578841D01*
X16479230Y-13578841D02*
X16479230Y-13540746D01*
X16479230Y-13540746D02*
X16469706Y-13493127D01*
X16469706Y-13493127D02*
X16460182Y-13464555D01*
X16460182Y-13464555D02*
X16450658Y-13445508D01*
X16450658Y-13445508D02*
X16431611Y-13416936D01*
X16431611Y-13416936D02*
X16422087Y-13407412D01*
M02*
