M48
; DRILL file {KiCad 9.0.2} date 2025-06-17T21:40:11-0500
; FORMAT={-:-/ absolute / metric / decimal}
; #@! TF.CreationDate,2025-06-17T21:40:11-05:00
; #@! TF.GenerationSoftware,Kicad,Pcbnew,9.0.2
; #@! TF.FileFunction,Plated,1,2,PTH
FMAT,2
METRIC
; #@! TA.AperFunction,Plated,PTH,ViaDrill
T1C0.300
; #@! TA.AperFunction,Plated,PTH,ComponentDrill
T2C0.889
; #@! TA.AperFunction,Plated,PTH,ComponentDrill
T3C1.000
; #@! TA.AperFunction,Plated,PTH,ComponentDrill
T4C1.500
%
G90
G05
T1
X142.2Y-68.2
T2
X118.96Y-64.8
X118.96Y-67.34
X118.96Y-69.88
X118.96Y-72.42
X118.96Y-74.96
X118.96Y-77.5
X118.96Y-80.04
X134.2Y-64.8
X134.2Y-67.34
X134.2Y-69.88
X134.2Y-72.42
X134.2Y-74.96
X134.2Y-77.5
X134.2Y-80.04
T3
X139.376Y-70.9
X139.376Y-73.4
X139.376Y-75.9
X153.876Y-70.9
X153.876Y-75.9
T4
X104.19Y-70.86
X104.21Y-89.901
X104.21Y-108.951
X110.54Y-68.32
X110.56Y-87.361
X110.56Y-106.411
X123.26Y-89.901
X123.26Y-108.96
X129.61Y-87.361
X129.61Y-106.42
X142.31Y-89.91
X142.31Y-108.96
X148.66Y-87.37
X148.66Y-106.42
T4
G00X146.226Y-67.8
M15
G01X147.526Y-67.8
M16
G05
G00X146.226Y-79.0
M15
G01X147.526Y-79.0
M16
G05
M30
