G04 #@! TF.GenerationSoftware,KiCad,Pcbnew,9.0.2*
G04 #@! TF.CreationDate,2025-06-17T21:40:11-05:00*
G04 #@! TF.ProjectId,hackapad_but_kerbal,6861636b-6170-4616-945f-6275745f6b65,rev?*
G04 #@! TF.SameCoordinates,Original*
G04 #@! TF.FileFunction,Copper,L1,Top*
G04 #@! TF.FilePolarity,Positive*
%FSLAX46Y46*%
G04 Gerber Fmt 4.6, Leading zero omitted, Abs format (unit mm)*
G04 Created by KiCad (PCBNEW 9.0.2) date 2025-06-17 21:40:11*
%MOMM*%
%LPD*%
G01*
G04 APERTURE LIST*
G04 Aperture macros list*
%AMRoundRect*
0 Rectangle with rounded corners*
0 $1 Rounding radius*
0 $2 $3 $4 $5 $6 $7 $8 $9 X,Y pos of 4 corners*
0 Add a 4 corners polygon primitive as box body*
4,1,4,$2,$3,$4,$5,$6,$7,$8,$9,$2,$3,0*
0 Add four circle primitives for the rounded corners*
1,1,$1+$1,$2,$3*
1,1,$1+$1,$4,$5*
1,1,$1+$1,$6,$7*
1,1,$1+$1,$8,$9*
0 Add four rect primitives between the rounded corners*
20,1,$1+$1,$2,$3,$4,$5,0*
20,1,$1+$1,$4,$5,$6,$7,0*
20,1,$1+$1,$6,$7,$8,$9,0*
20,1,$1+$1,$8,$9,$2,$3,0*%
G04 Aperture macros list end*
G04 #@! TA.AperFunction,ComponentPad*
%ADD10C,2.200000*%
G04 #@! TD*
G04 #@! TA.AperFunction,ComponentPad*
%ADD11R,2.000000X2.000000*%
G04 #@! TD*
G04 #@! TA.AperFunction,ComponentPad*
%ADD12C,2.000000*%
G04 #@! TD*
G04 #@! TA.AperFunction,ComponentPad*
%ADD13R,3.200000X2.000000*%
G04 #@! TD*
G04 #@! TA.AperFunction,SMDPad,CuDef*
%ADD14RoundRect,0.152400X1.063600X0.609600X-1.063600X0.609600X-1.063600X-0.609600X1.063600X-0.609600X0*%
G04 #@! TD*
G04 #@! TA.AperFunction,ComponentPad*
%ADD15C,1.524000*%
G04 #@! TD*
G04 #@! TA.AperFunction,SMDPad,CuDef*
%ADD16RoundRect,0.152400X-1.063600X-0.609600X1.063600X-0.609600X1.063600X0.609600X-1.063600X0.609600X0*%
G04 #@! TD*
G04 #@! TA.AperFunction,SMDPad,CuDef*
%ADD17R,1.600000X0.850000*%
G04 #@! TD*
G04 #@! TA.AperFunction,ViaPad*
%ADD18C,0.600000*%
G04 #@! TD*
G04 #@! TA.AperFunction,Conductor*
%ADD19C,0.200000*%
G04 #@! TD*
G04 APERTURE END LIST*
D10*
G04 #@! TO.P,SW1,1,1*
G04 #@! TO.N,GND*
X110560000Y-87361250D03*
G04 #@! TO.P,SW1,2,2*
G04 #@! TO.N,Net-(U1-GPIO7{slash}SCL)*
X104210000Y-89901250D03*
G04 #@! TD*
G04 #@! TO.P,SW4,1,1*
G04 #@! TO.N,GND*
X129610000Y-106420000D03*
G04 #@! TO.P,SW4,2,2*
G04 #@! TO.N,Net-(U1-GPIO2{slash}SCK)*
X123260000Y-108960000D03*
G04 #@! TD*
D11*
G04 #@! TO.P,SW7,A,A*
G04 #@! TO.N,Net-(U1-GPIO29{slash}ADC3{slash}A3)*
X139376250Y-70900000D03*
D12*
G04 #@! TO.P,SW7,B,B*
G04 #@! TO.N,Net-(U1-GPIO28{slash}ADC2{slash}A2)*
X139376250Y-75900000D03*
G04 #@! TO.P,SW7,C,C*
G04 #@! TO.N,GND*
X139376250Y-73400000D03*
D13*
G04 #@! TO.P,SW7,MP*
G04 #@! TO.N,N/C*
X146876250Y-67800000D03*
X146876250Y-79000000D03*
D12*
G04 #@! TO.P,SW7,S1,S1*
G04 #@! TO.N,GND*
X153876250Y-75900000D03*
G04 #@! TO.P,SW7,S2,S2*
G04 #@! TO.N,Net-(U1-GPIO27{slash}ADC1{slash}A1)*
X153876250Y-70900000D03*
G04 #@! TD*
D10*
G04 #@! TO.P,SW2,1,1*
G04 #@! TO.N,GND*
X110560000Y-106411250D03*
G04 #@! TO.P,SW2,2,2*
G04 #@! TO.N,Net-(U1-GPIO0{slash}TX)*
X104210000Y-108951250D03*
G04 #@! TD*
G04 #@! TO.P,SW5,1,1*
G04 #@! TO.N,GND*
X148660000Y-87370000D03*
G04 #@! TO.P,SW5,2,2*
G04 #@! TO.N,Net-(U1-GPIO4{slash}MISO)*
X142310000Y-89910000D03*
G04 #@! TD*
G04 #@! TO.P,SW3,1,1*
G04 #@! TO.N,GND*
X129610000Y-87361250D03*
G04 #@! TO.P,SW3,2,2*
G04 #@! TO.N,Net-(U1-GPIO1{slash}RX)*
X123260000Y-89901250D03*
G04 #@! TD*
D14*
G04 #@! TO.P,U1,1,GPIO26/ADC0/A0*
G04 #@! TO.N,Net-(U1-GPIO26{slash}ADC0{slash}A0)*
X118125000Y-64800000D03*
D15*
X118960000Y-64800000D03*
D14*
G04 #@! TO.P,U1,2,GPIO27/ADC1/A1*
G04 #@! TO.N,Net-(U1-GPIO27{slash}ADC1{slash}A1)*
X118125000Y-67340000D03*
D15*
X118960000Y-67340000D03*
D14*
G04 #@! TO.P,U1,3,GPIO28/ADC2/A2*
G04 #@! TO.N,Net-(U1-GPIO28{slash}ADC2{slash}A2)*
X118125000Y-69880000D03*
D15*
X118960000Y-69880000D03*
D14*
G04 #@! TO.P,U1,4,GPIO29/ADC3/A3*
G04 #@! TO.N,Net-(U1-GPIO29{slash}ADC3{slash}A3)*
X118125000Y-72420000D03*
D15*
X118960000Y-72420000D03*
D14*
G04 #@! TO.P,U1,5,GPIO6/SDA*
G04 #@! TO.N,Net-(D1-DIN)*
X118125000Y-74960000D03*
D15*
X118960000Y-74960000D03*
D14*
G04 #@! TO.P,U1,6,GPIO7/SCL*
G04 #@! TO.N,Net-(U1-GPIO7{slash}SCL)*
X118125000Y-77500000D03*
D15*
X118960000Y-77500000D03*
D14*
G04 #@! TO.P,U1,7,GPIO0/TX*
G04 #@! TO.N,Net-(U1-GPIO0{slash}TX)*
X118125000Y-80040000D03*
D15*
X118960000Y-80040000D03*
G04 #@! TO.P,U1,8,GPIO1/RX*
G04 #@! TO.N,Net-(U1-GPIO1{slash}RX)*
X134200000Y-80040000D03*
D16*
X135035000Y-80040000D03*
D15*
G04 #@! TO.P,U1,9,GPIO2/SCK*
G04 #@! TO.N,Net-(U1-GPIO2{slash}SCK)*
X134200000Y-77500000D03*
D16*
X135035000Y-77500000D03*
D15*
G04 #@! TO.P,U1,10,GPIO4/MISO*
G04 #@! TO.N,Net-(U1-GPIO4{slash}MISO)*
X134200000Y-74960000D03*
D16*
X135035000Y-74960000D03*
D15*
G04 #@! TO.P,U1,11,GPIO3/MOSI*
G04 #@! TO.N,Net-(U1-GPIO3{slash}MOSI)*
X134200000Y-72420000D03*
D16*
X135035000Y-72420000D03*
D15*
G04 #@! TO.P,U1,12,3V3*
G04 #@! TO.N,unconnected-(U1-3V3-Pad12)*
X134200000Y-69880000D03*
D16*
X135035000Y-69880000D03*
D15*
G04 #@! TO.P,U1,13,GND*
G04 #@! TO.N,GND*
X134200000Y-67340000D03*
D16*
X135035000Y-67340000D03*
D15*
G04 #@! TO.P,U1,14,VBUS*
G04 #@! TO.N,+5V*
X134200000Y-64800000D03*
D16*
X135035000Y-64800000D03*
G04 #@! TD*
D17*
G04 #@! TO.P,D1,1,DOUT*
G04 #@! TO.N,unconnected-(D1-DOUT-Pad1)*
X145000000Y-62900000D03*
G04 #@! TO.P,D1,2,VSS*
G04 #@! TO.N,GND*
X145000000Y-64650000D03*
G04 #@! TO.P,D1,3,DIN*
G04 #@! TO.N,Net-(D1-DIN)*
X148500000Y-64650000D03*
G04 #@! TO.P,D1,4,VDD*
G04 #@! TO.N,+5V*
X148500000Y-62900000D03*
G04 #@! TD*
D10*
G04 #@! TO.P,SW6,1,1*
G04 #@! TO.N,GND*
X148660000Y-106420000D03*
G04 #@! TO.P,SW6,2,2*
G04 #@! TO.N,Net-(U1-GPIO3{slash}MOSI)*
X142310000Y-108960000D03*
G04 #@! TD*
G04 #@! TO.P,SW8,1,1*
G04 #@! TO.N,Net-(U1-GPIO26{slash}ADC0{slash}A0)*
X110540000Y-68320000D03*
G04 #@! TO.P,SW8,2,2*
G04 #@! TO.N,GND*
X104190000Y-70860000D03*
G04 #@! TD*
D18*
G04 #@! TO.N,+5V*
X142200000Y-68200000D03*
G04 #@! TD*
D19*
G04 #@! TO.N,Net-(D1-DIN)*
X124591310Y-63626000D02*
X119400310Y-68817000D01*
X119400310Y-68817000D02*
X116869374Y-68817000D01*
X116608000Y-69078374D02*
X116608000Y-73685630D01*
X147476000Y-63626000D02*
X124591310Y-63626000D01*
X148500000Y-64650000D02*
X147476000Y-63626000D01*
X116869374Y-68817000D02*
X116608000Y-69078374D01*
X117882370Y-74960000D02*
X118960000Y-74960000D01*
X116608000Y-73685630D02*
X117882370Y-74960000D01*
G04 #@! TO.N,+5V*
X148301000Y-66499000D02*
X143901000Y-66499000D01*
X149601000Y-64001000D02*
X149601000Y-65199000D01*
X149601000Y-65199000D02*
X148301000Y-66499000D01*
X148500000Y-62900000D02*
X149601000Y-64001000D01*
X143901000Y-66499000D02*
X142200000Y-68200000D01*
G04 #@! TO.N,GND*
X148660000Y-106420000D02*
X148660000Y-87370000D01*
X142310000Y-67340000D02*
X134200000Y-67340000D01*
X104190000Y-70860000D02*
X104190000Y-80991250D01*
X110568750Y-106420000D02*
X148660000Y-106420000D01*
X135277630Y-67340000D02*
X134200000Y-67340000D01*
X148651250Y-87361250D02*
X148660000Y-87370000D01*
X110560000Y-87361250D02*
X129610000Y-87361250D01*
X139376250Y-73400000D02*
X136552000Y-70575750D01*
X110560000Y-106411250D02*
X110568750Y-106420000D01*
X136552000Y-68614370D02*
X135277630Y-67340000D01*
X129610000Y-87361250D02*
X142415000Y-87361250D01*
X129610000Y-106420000D02*
X148660000Y-106420000D01*
X149975250Y-71999000D02*
X140777250Y-71999000D01*
X142415000Y-87361250D02*
X153876250Y-75900000D01*
X104190000Y-80991250D02*
X110560000Y-87361250D01*
X129610000Y-87361250D02*
X148651250Y-87361250D01*
X140777250Y-71999000D02*
X139376250Y-73400000D01*
X136552000Y-70575750D02*
X136552000Y-68614370D01*
X145000000Y-64650000D02*
X142310000Y-67340000D01*
X153876250Y-75900000D02*
X149975250Y-71999000D01*
G04 #@! TO.N,Net-(U1-GPIO28{slash}ADC2{slash}A2)*
X138839250Y-76437000D02*
X125517000Y-76437000D01*
X125517000Y-76437000D02*
X118960000Y-69880000D01*
X139376250Y-75900000D02*
X138839250Y-76437000D01*
G04 #@! TO.N,Net-(U1-GPIO26{slash}ADC0{slash}A0)*
X118960000Y-64800000D02*
X114060000Y-64800000D01*
X114060000Y-64800000D02*
X110540000Y-68320000D01*
G04 #@! TD*
M02*
